<svg width="20" height="20" viewBox="0 0 20 20" fill="none" xmlns="http://www.w3.org/2000/svg">
<path d="M11.4219 3.62879C11.4378 3.56927 11.4652 3.51345 11.5027 3.46454C11.5401 3.41563 11.5868 3.37459 11.6402 3.34375C11.6935 3.31291 11.7524 3.29289 11.8135 3.28483C11.8745 3.27676 11.9366 3.28082 11.9961 3.29676C13.1283 3.59209 14.1613 4.18391 14.9886 5.01127C15.816 5.83863 16.4078 6.87161 16.7031 8.00379C16.7191 8.0633 16.7231 8.12536 16.7151 8.18643C16.707 8.24751 16.687 8.30639 16.6561 8.35972C16.6253 8.41305 16.5843 8.45978 16.5353 8.49724C16.4864 8.53469 16.4306 8.56214 16.3711 8.57801C16.3316 8.58853 16.2909 8.59378 16.25 8.59363C16.1467 8.5937 16.0463 8.55965 15.9644 8.49678C15.8824 8.43392 15.8236 8.34575 15.7969 8.24598C15.5433 7.27347 15.035 6.38616 14.3244 5.67551C13.6137 4.96485 12.7264 4.45656 11.7539 4.20301C11.6944 4.18714 11.6386 4.15969 11.5897 4.12224C11.5408 4.08478 11.4997 4.03805 11.4689 3.98472C11.438 3.93139 11.418 3.87251 11.41 3.81143C11.4019 3.75036 11.4059 3.6883 11.4219 3.62879ZM11.1289 6.70301C12.2656 7.00613 12.9938 7.73426 13.2969 8.87098C13.3236 8.97075 13.3824 9.05892 13.4644 9.12178C13.5463 9.18465 13.6467 9.2187 13.75 9.21863C13.7909 9.21878 13.8316 9.21353 13.8711 9.20301C13.9306 9.18714 13.9864 9.15969 14.0353 9.12224C14.0843 9.08478 14.1253 9.03805 14.1561 8.98472C14.187 8.93139 14.207 8.87251 14.2151 8.81143C14.2231 8.75036 14.2191 8.6883 14.2031 8.62879C13.8125 7.16707 12.8328 6.18738 11.3711 5.79676C11.3116 5.78086 11.2495 5.77683 11.1885 5.78491C11.1274 5.79299 11.0685 5.81302 11.0152 5.84385C10.9619 5.87468 10.9152 5.91571 10.8777 5.9646C10.8403 6.01349 10.8128 6.06928 10.7969 6.12879C10.781 6.1883 10.777 6.25035 10.785 6.31141C10.7931 6.37247 10.8131 6.43134 10.844 6.48467C10.8748 6.53799 10.9158 6.58471 10.9647 6.62218C11.0136 6.65964 11.0694 6.68711 11.1289 6.70301ZM17.3352 14.2811C17.2013 15.3024 16.7001 16.24 15.9253 16.9186C15.1505 17.5973 14.155 17.9705 13.125 17.9686C7.00782 17.9686 2.03126 12.9921 2.03126 6.87488C2.02928 5.84523 2.40221 4.85007 3.08038 4.07529C3.75854 3.30051 4.69556 2.7991 5.71641 2.66473C5.95141 2.63617 6.18933 2.68463 6.39444 2.80282C6.59955 2.92101 6.76078 3.10256 6.85391 3.3202L8.50235 6.99988C8.57514 7.16647 8.60525 7.34857 8.58997 7.52971C8.5747 7.71086 8.51451 7.88534 8.41485 8.03738C8.4048 8.05286 8.39384 8.06773 8.38204 8.08191L6.73595 10.0397C6.72595 10.06 6.72075 10.0823 6.72075 10.105C6.72075 10.1276 6.72595 10.1499 6.73595 10.1702C7.33438 11.3952 8.61876 12.6702 9.86095 13.2679C9.88169 13.2773 9.90434 13.2818 9.92712 13.281C9.9499 13.2802 9.97218 13.2741 9.9922 13.2632L11.9211 11.6225C11.9349 11.6106 11.9495 11.5996 11.9649 11.5897C12.1162 11.4888 12.2904 11.4272 12.4715 11.4106C12.6527 11.394 12.8351 11.4228 13.0024 11.4944L16.693 13.1483C16.9077 13.2435 17.0861 13.4053 17.2018 13.6097C17.3174 13.8142 17.3642 14.0504 17.3352 14.2835V14.2811ZM16.4063 14.1655C16.4089 14.1328 16.4012 14.1002 16.3842 14.0721C16.3672 14.0441 16.3419 14.0221 16.3117 14.0093L12.6203 12.3554C12.6002 12.3476 12.5785 12.3442 12.557 12.3456C12.5354 12.3469 12.5144 12.3529 12.4953 12.3632L10.5672 14.0038C10.5531 14.0155 10.5383 14.0264 10.5234 14.0366C10.3662 14.1415 10.1844 14.2038 9.99585 14.2175C9.80731 14.2312 9.61844 14.1958 9.44766 14.1147C8.01329 13.4218 6.5836 12.0054 5.89063 10.5843C5.80913 10.4145 5.77285 10.2265 5.7853 10.0386C5.79776 9.85067 5.85853 9.66915 5.96173 9.5116C5.97179 9.49593 5.98302 9.48105 5.99532 9.46707L7.63985 7.50691C7.64925 7.48645 7.65412 7.4642 7.65412 7.44168C7.65412 7.41916 7.64925 7.39691 7.63985 7.37645L5.99532 3.69598C5.98446 3.66642 5.96493 3.64083 5.93928 3.62257C5.91362 3.60431 5.88305 3.59422 5.85157 3.59363H5.8336C5.03903 3.69933 4.31008 4.09062 3.78289 4.69444C3.25571 5.29825 2.96631 6.07331 2.96876 6.87488C2.96876 12.4749 7.52501 17.0311 13.125 17.0311C13.9267 17.0336 14.7019 16.7441 15.3057 16.2167C15.9095 15.6894 16.3007 14.9602 16.4063 14.1655Z" fill="#9F4E2F"/>
</svg>
