<svg width="16" height="16" viewBox="0 0 16 16" fill="none" xmlns="http://www.w3.org/2000/svg">
<path d="M12.765 12.2349C12.8019 12.2693 12.8314 12.3107 12.8519 12.3567C12.8724 12.4027 12.8835 12.4523 12.8843 12.5027C12.8852 12.553 12.876 12.603 12.8571 12.6497C12.8382 12.6964 12.8102 12.7388 12.7746 12.7744C12.739 12.8101 12.6965 12.8381 12.6498 12.857C12.6032 12.8758 12.5531 12.8851 12.5028 12.8842C12.4524 12.8833 12.4028 12.8723 12.3568 12.8518C12.3108 12.8313 12.2694 12.8018 12.235 12.7649L8.00005 8.53055L3.76505 12.7649C3.69396 12.8312 3.59993 12.8672 3.50278 12.8655C3.40563 12.8638 3.31294 12.8244 3.24423 12.7557C3.17553 12.687 3.13617 12.5943 3.13446 12.4972C3.13274 12.4 3.16881 12.306 3.23505 12.2349L7.46942 7.99992L3.23505 3.76492C3.16881 3.69384 3.13274 3.59981 3.13446 3.50266C3.13617 3.40551 3.17553 3.31282 3.24423 3.24411C3.31294 3.17541 3.40563 3.13605 3.50278 3.13434C3.59993 3.13262 3.69396 3.16868 3.76505 3.23492L8.00005 7.4693L12.235 3.23492C12.3061 3.16868 12.4002 3.13262 12.4973 3.13434C12.5945 3.13605 12.6872 3.17541 12.7559 3.24411C12.8246 3.31282 12.8639 3.40551 12.8656 3.50266C12.8673 3.59981 12.8313 3.69384 12.765 3.76492L8.53067 7.99992L12.765 12.2349Z" fill="#321D16"/>
</svg>
