<svg width="195" height="25" viewBox="0 0 195 25" fill="none" xmlns="http://www.w3.org/2000/svg">
<path d="M12.6237 24.4703C12.1361 24.3566 11.6756 24.2769 11.2421 24.2314C10.8268 24.2087 10.285 24.1973 9.61676 24.1973H0V24.129C0.397312 23.7878 0.740446 23.1848 1.0294 22.3202C1.31835 21.4556 1.46283 20.3749 1.46283 19.078V5.4606C1.46283 4.20922 1.31835 3.1626 1.0294 2.32076C0.740446 1.45616 0.397312 0.864597 0 0.546061V0.477803H6.63692V0.546061C6.23961 0.887349 5.89648 1.49029 5.60752 2.35489C5.31857 3.21948 5.17409 4.30023 5.17409 5.59712V20.7844H7.85595C9.04789 20.7844 10.1044 20.5341 11.0254 20.0336C11.9465 19.5103 12.6959 18.7367 13.2738 17.7128L13.328 17.747L12.6237 24.4703Z" fill="#F7EBDD"/>
<path d="M28.6257 17.6787L27.8672 24.4703C27.3616 24.3566 26.874 24.2769 26.4044 24.2314C25.9529 24.2087 25.3389 24.1973 24.5623 24.1973H14.9997V24.129C15.3971 23.7878 15.7402 23.1848 16.0291 22.3202C16.3181 21.4556 16.4626 20.3749 16.4626 19.078V5.59712C16.4626 4.27747 16.3181 3.19673 16.0291 2.35489C15.7402 1.49029 15.3971 0.887349 14.9997 0.546061V0.477803H24.7249C26.0071 0.477803 26.9643 0.386793 27.5963 0.204774L28.0569 6.31382L28.0027 6.34795C27.6776 5.50611 27.1539 4.88042 26.4315 4.47087C25.7091 4.03857 24.8152 3.82242 23.7496 3.82242H20.1738V9.82909H22.2326C23.3704 9.82909 24.2102 9.81771 24.7519 9.79496C25.2937 9.74945 25.8626 9.6812 26.4586 9.59019L25.673 15.3238H25.6188C25.4021 14.573 25.0499 14.0269 24.5623 13.6856C24.0747 13.3443 23.4426 13.1737 22.6661 13.1737H20.1738V20.8527H23.1266C24.3185 20.8527 25.375 20.5797 26.2961 20.0336C27.2352 19.4875 27.9937 18.6912 28.5716 17.6446L28.6257 17.6787Z" fill="#F7EBDD"/>
<path d="M54.7565 11.5014V11.5697C54.4495 11.8199 54.2237 12.3432 54.0793 13.1396C53.9348 13.9359 53.8626 15.0963 53.8626 16.6207V22.252C52.9596 22.98 51.885 23.5716 50.6389 24.0267C49.3928 24.4817 48.2279 24.7092 47.1444 24.7092C45.2842 24.7092 43.6318 24.1973 42.187 23.1734C40.7422 22.1496 39.6135 20.7275 38.8008 18.9073C38.0062 17.0871 37.6089 15.0053 37.6089 12.6618C37.6089 10.068 38.0242 7.81549 38.855 5.90428C39.7038 3.99307 40.8867 2.53691 42.4037 1.5358C43.9207 0.511932 45.6815 0 47.6862 0C49.5644 0 51.28 0.307159 52.8332 0.921477L53.2395 6.48447L53.1853 6.5186C51.7947 4.56188 49.9346 3.58352 47.6049 3.58352C45.7267 3.58352 44.2548 4.36848 43.1893 5.93841C42.1418 7.48558 41.6181 9.61294 41.6181 12.3205C41.6181 15.028 42.1328 17.1668 43.1622 18.7367C44.1916 20.3066 45.6093 21.0916 47.4153 21.0916C48.553 21.0916 49.5463 20.8413 50.3951 20.3407V14.7778C48.5711 14.8233 47.2256 15.4148 46.3588 16.5525L46.3046 16.5183L46.738 11.2966C47.334 11.4331 48.4356 11.5014 50.0429 11.5014H54.7565Z" fill="#F7EBDD"/>
<path d="M70.4182 19.5899C71.4657 21.7059 72.6396 23.0369 73.9399 23.583V23.6512L68.3865 24.914C68.0434 23.6171 67.5829 22.3543 67.005 21.1257L62.8061 12.0816H64.1064C65.2983 12.0816 66.2013 11.7517 66.8154 11.0919C67.4294 10.4093 67.7364 9.32853 67.7364 7.84962C67.7364 6.59823 67.4203 5.60849 66.7883 4.88041C66.1562 4.15233 65.2622 3.79967 64.1064 3.82242L62.2101 3.85655V19.2145C62.2101 20.4431 62.3456 21.4897 62.6165 22.3543C62.8874 23.1962 63.2034 23.7878 63.5646 24.129V24.1973H57.036V24.129C57.4334 23.8105 57.7765 23.2189 58.0654 22.3543C58.3544 21.467 58.4989 20.3749 58.4989 19.078V5.4606C58.4989 4.20922 58.3544 3.1626 58.0654 2.32076C57.7765 1.45616 57.4334 0.864597 57.036 0.546061V0.477803H64.7295C66.8786 0.477803 68.5581 1.12625 69.7681 2.42314C70.9781 3.69728 71.5831 5.44923 71.5831 7.67897C71.5831 9.45367 71.258 10.9098 70.6079 12.0475C69.9758 13.1623 69.0728 13.9587 67.8989 14.4365L70.4182 19.5899Z" fill="#F7EBDD"/>
<path d="M90.7627 18.6002C91.1058 19.8288 91.5302 20.9551 92.0358 21.9789C92.5415 22.98 93.0021 23.6967 93.4174 24.129V24.1973H87.2952V24.129C87.5842 23.856 87.7286 23.3327 87.7286 22.5591C87.7286 21.831 87.5842 20.9551 87.2952 19.9312L87.0514 19.1121H80.0623L79.8185 19.9312C79.5295 20.8641 79.3851 21.7287 79.3851 22.525C79.3851 23.3213 79.5115 23.856 79.7643 24.129V24.1973H74.0755V24.129C74.4909 23.674 74.9424 22.9459 75.43 21.9448C75.9357 20.9437 76.3601 19.8288 76.7032 18.6002L80.577 4.53913C80.7395 3.92481 80.8208 3.36737 80.8208 2.86682C80.8208 2.34351 80.7486 1.87708 80.6041 1.46754C80.4596 1.05799 80.2881 0.750834 80.0894 0.546061V0.477803H87.2681V0.546061C87.0695 0.773586 86.8979 1.09212 86.7534 1.50167C86.6089 1.88846 86.5367 2.34351 86.5367 2.86682C86.5367 3.36737 86.618 3.92481 86.7805 4.53913L90.7627 18.6002ZM83.4756 5.01693C83.3672 6.17731 83.1957 7.2808 82.9609 8.32742C82.7261 9.35128 82.392 10.6254 81.9586 12.1498L80.9563 15.7675H86.1574L85.1551 12.1498C84.7036 10.5117 84.3605 9.20339 84.1257 8.22503C83.891 7.24668 83.7103 6.17731 83.5839 5.01693H83.4756Z" fill="#F7EBDD"/>
<path d="M94.5222 24.129C94.9195 23.7878 95.2626 23.1848 95.5516 22.3202C95.8405 21.4556 95.985 20.3749 95.985 19.078V5.42648C95.985 4.42536 95.8586 3.46976 95.6057 2.55966C95.3529 1.62681 94.9917 0.955607 94.5222 0.546061V0.477803H100.671C100.708 0.864596 100.798 1.29689 100.942 1.7747C101.087 2.22975 101.367 2.88957 101.782 3.75417L105.683 12.0133C106.442 13.6288 107.272 15.8813 108.175 18.7708H108.284C107.995 16.7003 107.85 14.3568 107.85 11.7403V5.59712C107.85 4.27747 107.715 3.18535 107.444 2.32076C107.191 1.45616 106.866 0.864597 106.469 0.546061V0.477803H112.726V0.546061C112.329 0.864597 111.986 1.46754 111.697 2.35489C111.408 3.21948 111.263 4.30023 111.263 5.59712V19.078C111.263 20.3749 111.408 21.467 111.697 22.3543C111.986 23.2189 112.329 23.8105 112.726 24.129V24.1973H107.01C106.685 23.2189 106.234 22.1382 105.656 20.9551L101.836 13.1396C101.204 11.8427 100.681 10.6254 100.265 9.4878C99.8498 8.32742 99.4344 6.95089 99.019 5.35822H98.9107C99.1093 6.83713 99.2357 8.16815 99.2899 9.35128C99.3622 10.5344 99.3983 11.8427 99.3983 13.2761V19.078C99.3983 20.3976 99.5247 21.4897 99.7775 22.3543C100.048 23.2189 100.383 23.8105 100.78 24.129V24.1973H94.5222V24.129Z" fill="#F7EBDD"/>
<path d="M115.924 24.129C116.321 23.7878 116.664 23.1848 116.953 22.3202C117.242 21.4556 117.387 20.3749 117.387 19.078V5.59712C117.387 4.41399 117.233 3.356 116.926 2.42314C116.637 1.49029 116.303 0.864597 115.924 0.546061V0.477803H123.78C125.676 0.477803 127.329 0.955605 128.737 1.91121C130.164 2.84406 131.266 4.19784 132.042 5.97254C132.819 7.74723 133.207 9.86322 133.207 12.3205C133.207 16.1202 132.385 19.0552 130.742 21.1257C129.098 23.1734 126.633 24.1973 123.346 24.1973H115.924V24.129ZM123.617 20.8185C125.423 20.8185 126.805 20.0905 127.762 18.6343C128.719 17.1781 129.198 15.0735 129.198 12.3205C129.198 9.43092 128.728 7.30356 127.789 5.93841C126.85 4.5505 125.414 3.85655 123.482 3.85655H121.098V20.8185H123.617Z" fill="#F7EBDD"/>
<path d="M150.171 0.477803C152.338 0.477803 154.017 1.149 155.209 2.4914C156.401 3.8338 156.997 5.73363 156.997 8.19091C156.997 10.9212 156.41 12.9689 155.236 14.3341C154.063 15.6992 152.374 16.3818 150.171 16.3818H147.949V19.2145C147.949 20.4659 148.094 21.5239 148.383 22.3885C148.672 23.2303 149.015 23.8105 149.412 24.129V24.1973H142.775V24.129C143.173 23.7878 143.516 23.1848 143.805 22.3202C144.094 21.4556 144.238 20.3749 144.238 19.078V5.4606C144.238 4.20922 144.094 3.1626 143.805 2.32076C143.516 1.45616 143.173 0.864597 142.775 0.546061V0.477803H150.171ZM149.548 13.0031C151.95 13.0258 153.151 11.5014 153.151 8.42981C153.151 6.85988 152.853 5.71088 152.257 4.9828C151.679 4.23197 150.776 3.85655 149.548 3.85655H147.949V12.9689L149.548 13.0031Z" fill="#F7EBDD"/>
<path d="M173.036 18.6002C173.379 19.8288 173.804 20.9551 174.31 21.9789C174.815 22.98 175.276 23.6967 175.691 24.129V24.1973H169.569V24.129C169.858 23.856 170.002 23.3327 170.002 22.5591C170.002 21.831 169.858 20.9551 169.569 19.9312L169.325 19.1121H162.336L162.092 19.9312C161.803 20.8641 161.659 21.7287 161.659 22.525C161.659 23.3213 161.785 23.856 162.038 24.129V24.1973H156.349V24.129C156.765 23.674 157.216 22.9459 157.704 21.9448C158.209 20.9437 158.634 19.8288 158.977 18.6002L162.851 4.53913C163.013 3.92481 163.094 3.36737 163.094 2.86682C163.094 2.34351 163.022 1.87708 162.878 1.46754C162.733 1.05799 162.562 0.750834 162.363 0.546061V0.477803H169.542V0.546061C169.343 0.773586 169.172 1.09212 169.027 1.50167C168.883 1.88846 168.81 2.34351 168.81 2.86682C168.81 3.36737 168.892 3.92481 169.054 4.53913L173.036 18.6002ZM165.749 5.01693C165.641 6.17731 165.469 7.2808 165.235 8.32742C165 9.35128 164.666 10.6254 164.232 12.1498L163.23 15.7675H168.431L167.429 12.1498C166.977 10.5117 166.634 9.20339 166.399 8.22503C166.165 7.24668 165.984 6.17731 165.858 5.01693H165.749Z" fill="#F7EBDD"/>
<path d="M176.796 24.129C177.193 23.7878 177.536 23.1848 177.825 22.3202C178.114 21.4556 178.259 20.3749 178.259 19.078V5.42648C178.259 4.42536 178.132 3.46976 177.879 2.55966C177.627 1.62681 177.265 0.955607 176.796 0.546061V0.477803H182.945C182.981 0.864596 183.072 1.29689 183.216 1.7747C183.361 2.22975 183.64 2.88957 184.056 3.75417L187.957 12.0133C188.715 13.6288 189.546 15.8813 190.449 18.7708H190.557C190.268 16.7003 190.124 14.3568 190.124 11.7403V5.59712C190.124 4.27747 189.988 3.18535 189.718 2.32076C189.465 1.45616 189.14 0.864597 188.742 0.546061V0.477803H195V0.546061C194.603 0.864597 194.26 1.46754 193.971 2.35489C193.682 3.21948 193.537 4.30023 193.537 5.59712V19.078C193.537 20.3749 193.682 21.467 193.971 22.3543C194.26 23.2189 194.603 23.8105 195 24.129V24.1973H189.284C188.959 23.2189 188.508 22.1382 187.93 20.9551L184.11 13.1396C183.478 11.8427 182.954 10.6254 182.539 9.4878C182.123 8.32742 181.708 6.95089 181.293 5.35822H181.184C181.383 6.83713 181.509 8.16815 181.564 9.35128C181.636 10.5344 181.672 11.8427 181.672 13.2761V19.078C181.672 20.3976 181.798 21.4897 182.051 22.3543C182.322 23.2189 182.656 23.8105 183.054 24.129V24.1973H176.796V24.129Z" fill="#F7EBDD"/>
</svg>
