<svg width="118" height="43" viewBox="0 0 118 43" fill="none" xmlns="http://www.w3.org/2000/svg">
<g clip-path="url(#clip0_44_538)">
<path d="M102.087 40.8472C101.089 41.2854 99.5564 41.4454 98.5673 40.8981C98.1854 40.3726 98.0382 38.8345 98.4891 38.3345C99.3473 37.3872 101.018 37.6326 101.995 38.1763C102.202 39.0763 102.06 39.7381 102.085 40.8472H102.087ZM99.6109 39.5072C99.6673 39.3654 99.2618 39.2745 99.2818 38.9999C99.1909 39.3181 99.0273 39.3072 98.8764 39.449C98.6255 39.6817 99.0109 39.6836 99.1636 39.8363C99.2764 39.949 99.4891 39.8108 99.6109 39.5072ZM100.096 39.1054C100.096 39.0545 100.056 39.0145 100.005 39.0145C99.9545 39.0145 99.9145 39.0545 99.9145 39.1054C99.9145 39.1563 99.9545 39.1963 100.005 39.1963C100.056 39.1963 100.096 39.1563 100.096 39.1054ZM100.46 39.1054C100.46 39.0545 100.42 39.0145 100.369 39.0145C100.318 39.0145 100.278 39.0545 100.278 39.1054C100.278 39.1563 100.318 39.1963 100.369 39.1963C100.42 39.1963 100.46 39.1563 100.46 39.1054ZM101.185 39.1054C101.185 39.0545 101.145 39.0145 101.095 39.0145C101.044 39.0145 101.004 39.0545 101.004 39.1054C101.004 39.1563 101.044 39.1963 101.095 39.1963C101.145 39.1963 101.185 39.1563 101.185 39.1054ZM101.445 39.9199C101.607 39.4435 101.629 39.1963 101.438 39.0017C101.316 39.3708 101.316 39.6599 101.445 39.9199ZM100.824 39.2872C100.824 39.2363 100.784 39.1963 100.733 39.1963C100.682 39.1963 100.642 39.2363 100.642 39.2872C100.642 39.3381 100.682 39.3781 100.733 39.3781C100.784 39.3781 100.824 39.3381 100.824 39.2872ZM100.096 39.8326C100.096 39.7817 100.056 39.7417 100.005 39.7417C99.9545 39.7417 99.9145 39.7817 99.9145 39.8326C99.9145 39.8836 99.9545 39.9236 100.005 39.9236C100.056 39.9236 100.096 39.8836 100.096 39.8326ZM100.46 39.8326C100.46 39.7817 100.42 39.7417 100.369 39.7417C100.318 39.7417 100.278 39.7817 100.278 39.8326C100.278 39.8836 100.318 39.9236 100.369 39.9236C100.42 39.9236 100.46 39.8836 100.46 39.8326ZM100.824 39.8326C100.824 39.7817 100.784 39.7417 100.733 39.7417C100.682 39.7417 100.642 39.7817 100.642 39.8326C100.642 39.8836 100.682 39.9236 100.733 39.9236C100.784 39.9236 100.824 39.8836 100.824 39.8326ZM101.185 39.8326C101.185 39.7817 101.145 39.7417 101.095 39.7417C101.044 39.7417 101.004 39.7817 101.004 39.8326C101.004 39.8836 101.044 39.9236 101.095 39.9236C101.145 39.9236 101.185 39.8836 101.185 39.8326Z" fill="white"/>
<path d="M116.711 40.5567C116.449 41.5149 113.431 41.373 113.135 40.7312C112.796 39.993 113.062 39.133 113.018 38.2858C114.045 37.6912 115.558 37.3712 116.562 38.1876C116.987 38.713 116.878 39.9439 116.711 40.5567ZM114.893 39.8385C115.078 39.8385 115.216 39.6349 115.269 39.6949L115.464 39.913C115.793 39.6639 115.347 39.2203 115.127 39.1421C114.758 39.3749 114.229 39.4949 113.795 39.2421C113.651 39.2585 113.425 39.6403 113.618 39.7385C114.264 40.0639 113.86 39.5312 114.493 39.6039C114.604 39.6167 114.66 39.8367 114.893 39.8367V39.8385ZM115.902 39.1058C115.902 39.0549 115.862 39.0149 115.811 39.0149C115.76 39.0149 115.72 39.0549 115.72 39.1058C115.72 39.1567 115.76 39.1967 115.811 39.1967C115.862 39.1967 115.902 39.1567 115.902 39.1058ZM116.16 39.9203C116.322 39.4439 116.344 39.1967 116.153 39.0021C116.031 39.3712 116.031 39.6603 116.16 39.9203ZM115.902 39.833C115.902 39.7821 115.862 39.7421 115.811 39.7421C115.76 39.7421 115.72 39.7821 115.72 39.833C115.72 39.8839 115.76 39.9239 115.811 39.9239C115.862 39.9239 115.902 39.8839 115.902 39.833Z" fill="white"/>
<path d="M109.124 40.86C108.585 41.4618 106.733 41.3527 106.007 40.8855C105.282 40.4182 105.382 38.7182 105.971 38.1946C106.835 37.4291 108.085 37.7 109.173 37.9873C109.34 38.7873 109.791 40.1146 109.124 40.86ZM106.927 39.8782C107.18 39.6618 106.985 39.2491 106.709 39.1837L106.147 39.0527C106.076 39.2182 106.007 39.6364 106.156 39.8818C106.358 39.7946 106.742 39.8146 106.927 39.8782ZM107.364 39.1055C107.364 39.0546 107.324 39.0146 107.273 39.0146C107.222 39.0146 107.182 39.0546 107.182 39.1055C107.182 39.1564 107.222 39.1964 107.273 39.1964C107.324 39.1964 107.364 39.1564 107.364 39.1055ZM107.725 39.1055C107.725 39.0546 107.685 39.0146 107.635 39.0146C107.584 39.0146 107.544 39.0546 107.544 39.1055C107.544 39.1564 107.584 39.1964 107.635 39.1964C107.685 39.1964 107.725 39.1564 107.725 39.1055ZM108.709 39.4455C108.709 39.2582 108.365 38.9327 108.285 39.1237C108.155 39.4582 107.902 39.4564 107.973 39.5727C108.155 39.8709 108.162 39.9673 108.376 39.9437C108.622 39.9164 108.711 39.76 108.709 39.4455ZM107.364 39.8327C107.364 39.7818 107.324 39.7418 107.273 39.7418C107.222 39.7418 107.182 39.7818 107.182 39.8327C107.182 39.8837 107.222 39.9237 107.273 39.9237C107.324 39.9237 107.364 39.8837 107.364 39.8327ZM107.725 39.8327C107.725 39.7818 107.685 39.7418 107.635 39.7418C107.584 39.7418 107.544 39.7818 107.544 39.8327C107.544 39.8837 107.584 39.9237 107.635 39.9237C107.685 39.9237 107.725 39.8837 107.725 39.8327Z" fill="white"/>
<path d="M112.629 40.3909C112.345 40.4418 111.998 39.9436 111.96 39.6182C111.915 39.2436 112.293 38.7582 112.644 38.6909C112.564 39.3546 112.46 39.5418 112.631 40.3909H112.629Z" fill="white"/>
<path d="M97.8527 40.4652C97.6527 40.138 97.3382 39.9761 97.3382 39.6507C97.3382 39.2089 97.4545 38.8598 97.8982 38.6416C97.9091 39.258 97.9764 39.6598 97.8509 40.4652H97.8527Z" fill="white"/>
<path d="M117.973 39.3269C117.9 39.845 117.46 39.8432 117.245 40.4214C117.271 39.765 117.104 39.2123 117.218 38.4414C117.398 38.765 117.562 39.0014 117.973 39.3269Z" fill="white"/>
<path d="M109.969 40.269C109.84 39.8581 109.913 39.3763 109.925 38.7763C110.276 38.7581 110.389 39.0127 110.431 39.1999C110.5 39.5072 110.516 39.9909 109.969 40.269Z" fill="white"/>
<path d="M105.378 40.4669C104.938 40.5233 104.818 40.0487 104.691 39.7705C104.549 39.4578 104.856 39.0233 105.162 38.8105C105.155 39.396 105.169 39.7633 105.378 40.4669Z" fill="white"/>
<path d="M103.138 39.3908C103.264 39.7289 102.835 40.0362 102.685 40.3035C102.716 39.6126 102.527 39.1417 102.453 38.4453C102.778 38.6435 102.975 38.949 103.138 39.3926V39.3908Z" fill="white"/>
<path d="M28.1182 26.1671C28.6545 25.958 28.6382 26.6762 28.7455 27.0452C29.0018 26.918 28.8182 26.6489 29.0382 26.4052L29.6655 27.0834C29.0273 28.6634 28.7491 30.9362 28.4218 32.5852C28.1509 33.9525 27.9727 35.1998 28.4382 36.5652C28.62 37.0962 28.7236 37.7198 29.3 38.1289C29.8764 38.538 31.0218 38.3234 31.5582 37.6907C32.7982 36.2271 33.7836 34.6634 34.6018 33.018L34.7873 33.5816C35.1218 33.2107 35.2727 32.7598 35.7418 32.478C35.6764 32.7562 36.1127 33.0162 36.0527 33.1616C35.1182 35.3798 33.8527 37.6434 31.9764 39.1289C30.1873 40.5452 27.78 40.4907 26.3436 38.8616C25.7255 38.1598 25.3727 37.4016 25.1418 36.5198C22.9327 38.7725 22.9891 39.0507 19.9436 39.8652C16.0818 40.8998 12.2182 38.9325 8.95091 36.8871C8.14 39.1016 6.89273 43.018 3.60182 42.6689C2.16909 42.5162 0.987273 41.5325 0.43091 40.4125C-0.261818 39.0216 -0.101818 37.4398 0.780001 36.158C2 34.3834 4.19818 33.7125 6.28 33.9543C6.84727 32.898 6.72546 31.7871 7 30.7398C7.19091 30.0162 7.30727 29.3307 7.34182 28.5652C7.39273 27.4798 7.66545 26.478 7.76909 25.4071L7.93091 23.7562C8.02 22.8416 8.07636 22.0743 8.28364 21.1707C8.42364 20.5598 8.35818 19.8471 8.46182 19.2125L8.76909 17.2998C9.36 13.6307 9.95636 10.0162 11.5418 6.63979C12.5291 4.53615 13.7236 2.61434 15.6145 1.25434C16.6945 0.477972 18.46 0.103427 19.7382 0.412518C22.78 1.14888 22.8982 6.19797 22.2564 8.42343C22.0691 9.07434 22.0236 9.72524 21.4109 10.1234C21.6 7.55979 22.1709 6.96706 21.96 4.69615C21.92 4.26524 22.1982 3.7307 21.6691 3.41797L21.5745 6.8707L21.3945 8.33434C21.3091 9.03252 20.9418 9.65979 20.6655 10.3907C20.3436 9.9507 20.6364 9.55797 20.4927 9.04524C20.0527 9.26524 20.1 9.70525 19.92 10.1143C19.8655 10.2362 19.4564 10.1652 19.4309 10.0707L19.2618 9.39433C19.16 8.98888 18.7236 8.72524 18.9 8.15252C19.2255 7.09615 19.9691 3.0107 18.4582 2.25615C14.2673 4.82888 12.5873 13.0398 11.9727 17.5798L11.4509 21.4343L10.3455 30.1034L9.92364 32.6507C9.81636 33.2943 9.22727 34.2325 9.53273 34.9198C11.3545 36.4743 15.18 38.4798 17.62 37.5416C16.7309 33.1289 19.1527 27.5543 23.6673 26.1652C26.48 25.2998 26.4745 27.1834 27.3182 26.1252C27.5655 26.258 27.5709 26.5252 27.6418 26.8562C28.0018 26.838 27.8164 26.2834 28.1145 26.1671H28.1182ZM20.7891 5.98343C21.0255 6.41434 20.7236 6.66888 21.0255 6.89252C21.0709 5.9507 21.16 5.02343 20.98 3.96524L20.5236 6.72706C20.92 6.56343 20.5564 6.18524 20.7891 5.98343ZM19.4964 7.81979C19.7364 6.93434 19.9727 6.0507 19.6873 5.05615C19.6964 5.96706 19.3745 6.80161 19.4964 7.81979ZM8.91818 34.5052C9.39455 33.7489 9.38909 32.8907 9.51818 32.0162L9.95636 29.0234L11.44 17.4343L11.8509 14.8743C12.0164 13.8471 12.4891 12.8743 12.2945 11.7725C11.5909 14.1362 11.2 16.5434 10.8836 19.0325L10.4109 22.7489C10.3109 23.5343 10.1727 24.2362 10.1091 25.0198L9.94546 27.0216C9.87818 27.8416 9.68364 28.5707 9.57818 29.3889L8.92182 34.5034L8.91818 34.5052ZM8.61818 22.4671C9.03091 20.9143 8.92909 19.6034 9.19455 18.2452C9.33818 17.5107 9.65818 16.8089 9.33636 16.1162C8.97818 17.4562 9.02909 18.7125 8.76182 20.0034C8.58182 20.8743 8.38182 21.7071 8.61818 22.4689V22.4671ZM9.14909 28.1398C9.38727 27.8689 9.64 24.5471 9.66727 23.9671C9.71818 22.9034 10.2182 21.9507 9.90909 20.838C9.25636 22.8871 10.0382 21.9671 9.33273 23.8271C9.08546 24.478 9.39455 25.2343 9.24364 25.9307C9.08545 26.6671 8.97273 27.3525 9.14909 28.1416V28.1398ZM8.27455 24.1162C8.05455 25.0307 7.81636 25.9398 8.09818 26.8689C8.23455 24.798 8.87273 27.6289 8.27455 24.1162ZM20.7673 37.0107C22.7691 35.6543 24.6655 31.3362 25.4127 29.178C25.5436 28.8016 24.9836 27.7852 24.5673 27.9634C21.5836 29.2452 20.4218 34.258 20.7673 37.0125V37.0107ZM7.51636 30.6452C7.72727 29.7543 7.94909 29.1998 7.72909 28.4652C7.49273 29.2089 7.32364 29.9234 7.51636 30.6452ZM8.60364 31.7762C8.87273 31.2034 9.01455 30.6452 8.83091 29.7871C8.60364 30.3834 8.41818 31.0162 8.60364 31.7762ZM27.7873 36.3362C27.82 35.0616 27.7382 33.8943 27.8273 32.7016C27.8582 32.2889 28.18 31.8762 27.8455 31.5471C27.2709 33.2162 27.2909 34.9416 27.66 36.6743C27.9836 36.978 28.12 36.638 27.7855 36.3362H27.7873ZM20.1145 37.0543C20.1836 35.918 20.2291 34.9362 20.0855 33.9252C19.8345 35.0489 19.5055 36.1125 20.1145 37.0543ZM18.08 34.1016C17.6855 34.2762 17.6545 37.6452 18.0855 37.3816C18.5145 36.2234 18.1218 35.4543 18.08 34.1016ZM26.7818 36.2889C26.9764 35.3962 26.8964 34.8271 26.8291 34.0907C26.7109 34.3852 26.3491 34.7362 26.44 35.0616L26.7818 36.2889ZM5.68182 36.5962C4.23636 37.1343 2.30364 38.378 2.77636 40.1452C4.01818 39.9816 5.32182 37.8252 5.68182 36.5962ZM8.26727 36.6416C7.87455 36.9707 7.97273 37.4052 7.86 37.7907C7.64 38.5343 7.02727 39.038 6.97636 39.8307C7.32 39.6398 8.78909 36.5634 8.26727 36.6416ZM3.56546 36.9271C3.56546 36.8634 3.51455 36.8125 3.45091 36.8125C3.38727 36.8125 3.33636 36.8634 3.33636 36.9271C3.33636 36.9907 3.38727 37.0416 3.45091 37.0416C3.51455 37.0416 3.56546 36.9907 3.56546 36.9271ZM2.91818 37.3852C2.56182 37.5362 2.32182 37.9143 2.40727 38.3016C2.14182 38.4725 3.83636 36.9962 2.91818 37.3852ZM6.74 40.2852C6.74 40.1743 6.64909 40.0834 6.53818 40.0834C6.42727 40.0834 6.33636 40.1743 6.33636 40.2852C6.33636 40.3962 6.42727 40.4871 6.53818 40.4871C6.64909 40.4871 6.74 40.3962 6.74 40.2852ZM5.65455 41.3743C5.65455 41.3107 5.60364 41.2598 5.54 41.2598C5.47636 41.2598 5.42546 41.3107 5.42546 41.3743C5.42546 41.438 5.47636 41.4889 5.54 41.4889C5.60364 41.4889 5.65455 41.438 5.65455 41.3743Z" fill="white"/>
<path d="M100.027 32.9232C98.4982 34.6378 97.4764 35.6669 95.6946 37.1669C92.5818 39.7869 89.3509 39.5669 86.4636 36.5578C85.0091 38.6978 83.4764 40.6687 81.4727 42.1523C79.3818 43.7014 76.28 43.0378 75.3364 40.8705C74.8982 39.8632 74.4509 38.8887 74.4327 37.7178C73.3109 38.836 72.1527 39.8978 70.6491 40.4196C68.9327 41.0141 66.1182 40.3396 65.5509 38.0323C64.2836 39.0814 62.6364 39.3978 61.1855 38.6778C60.0673 38.1232 59.9073 36.5196 59.4018 35.656C58.6146 36.7251 57.9418 37.7614 56.8927 38.496C55.6818 39.3469 53.84 39.4905 52.8 38.3414C52.1982 37.6778 52 35.7269 52.1636 34.656C52.4764 32.616 52.9455 30.6814 53.4 28.6869C53.7036 27.3523 54.2018 26.2087 55.1109 25.2796C55.2582 25.4687 55.3436 25.536 55.3891 25.476L55.6527 25.1178C55.8036 24.9123 55.9691 24.7796 56.2091 24.8596C56.3346 24.9014 56.2255 25.2905 56.3946 25.3778C56.5764 25.2378 56.5764 25.0287 56.6636 24.936C56.7709 24.8196 56.8818 24.8105 57.0418 24.9323C57.4127 25.2178 56.6418 26.1051 57.3 25.9469C57.4273 25.916 57.5818 25.3414 57.6727 25.4051C57.7564 25.4651 57.8618 25.756 57.9218 25.8978C56.7327 28.3196 55.9473 31.1469 55.6164 33.9305C55.5346 34.6214 55.1364 35.1705 55.5764 35.8923L56.7455 34.3705C57.8182 32.9741 59.7655 28.3923 60.76 26.8941C61.14 27.616 61.2255 26.516 61.4964 26.496C61.6709 26.4832 61.8 26.7142 61.9727 26.8923L62.7327 26.416C62.9818 26.7251 62.7564 27.0232 62.9036 27.4051C63.0364 27.3123 63.1509 27.0305 63.2746 27.0596C63.4236 27.0942 63.8127 27.4269 63.76 27.5996C63.5 28.4505 63.6436 29.2469 63.5618 30.1269C63.3782 32.1251 63.2146 34.0578 63.6546 36.0451C63.7709 36.5723 64.6982 37.0178 65.1746 36.4978C65.7109 35.9123 65.46 34.6687 65.62 33.8414L66.06 31.5723C66.3164 30.2505 66.2455 28.9251 67.1691 27.8887C67.2746 28.5541 66.6891 28.9432 66.92 29.5996C67.2582 28.8596 67.46 28.1251 68.0691 27.5414C68.24 28.1196 67.9655 28.5905 68.2164 29.0432C68.4509 28.4596 68.2636 27.8432 68.9291 27.4541L69.0855 29.596C69.2855 29.3251 69.2927 29.0142 69.3818 28.6287C69.4291 28.4232 69.7036 28.4414 69.8455 28.4905C69.96 28.5287 70 28.8505 69.9473 29.0487C69.2764 31.4978 68.1 36.4123 68.9655 38.7851C69.1146 39.196 70.3091 39.1069 70.66 38.8341C72.0055 37.7832 73.4364 36.6651 74.1818 35.1196C74.3127 34.5778 74.3964 30.2014 74.4782 29.7469L74.8309 27.7578C74.9964 26.8232 75.0273 25.916 75.1946 24.9905C75.8855 21.196 76.7109 17.5378 78.0818 13.6541C75.92 13.5305 73.9127 13.7032 71.9436 13.0505C69.2709 12.1651 67.0346 10.5887 65.3927 8.33233C64.9946 7.78324 64.7345 7.14506 64.4691 6.52506C63.9709 5.35779 63.98 4.29415 64.5182 3.04688C65.6546 0.414151 69.1036 -0.822213 71.6527 0.574151C72.8546 1.23233 73.1836 2.83597 72.5927 3.88506C72.2455 4.50142 71.6291 4.74324 71.1255 5.24688C71.0055 5.06506 71.0727 4.84324 70.8364 4.61051C70.5291 4.94506 70.3855 5.2796 69.9346 5.25051L70.1146 4.51779C69.7127 4.46688 69.5527 4.78506 69.1364 4.95051C68.8764 4.59961 69.14 4.17051 68.9782 3.86506C68.8746 3.81051 68.6382 4.0087 68.5582 3.95961C68.1836 3.72506 69.1509 2.96688 68.3927 3.06324C68.3036 3.07415 68.3109 3.24142 68.2055 3.33961C66.3764 5.06142 66.8436 7.42506 68.6327 9.12142C70.0691 10.4832 72.0946 10.9523 74.0618 11.1342C75.4891 11.2669 77.4836 10.7905 78.9436 10.4051C79.8746 8.83051 80.4055 5.90142 81.5236 4.4687C81.5855 4.39051 81.5127 4.14324 81.6546 4.15415C81.7964 4.16506 81.8855 4.32324 82.02 4.49233C82.1055 3.65779 83.7818 4.07597 83.7436 4.05415C83.9582 4.18324 83.8346 4.40688 83.7382 4.71779C84.1946 4.56142 84.54 4.53415 84.8055 4.78506C83.9273 6.14142 83.4091 7.52688 82.9346 9.11415C86.3964 8.33597 89.42 6.35051 92.8036 6.13779C95.6836 5.95779 98.3782 6.87779 100.264 9.09597C101.091 10.0687 101.315 11.556 101.113 12.7778C101.084 12.9578 100.342 13.0305 100.322 12.8214C100.304 12.6269 100.66 12.1578 100.249 12.1232C100.004 12.3069 99.8527 12.7178 99.4055 12.8487C99.2545 12.4414 99.6564 12.1232 99.5182 11.576L98.8873 12.1323C98.5891 11.3687 98.6309 10.4542 98.2327 9.7887C96.6618 7.1687 91.1018 9.15233 88.8873 10.0087L83.3782 12.1414C82.8218 12.356 82.2436 12.3141 81.7164 12.716C80.36 16.6687 79.1346 20.6232 78.4309 24.7814L77.7727 28.6651C77.8546 28.1778 77.2364 33.2832 77.2709 32.8832C77.1218 34.6614 77.1546 36.4542 77.2618 38.2269C77.3309 39.3778 77.6964 40.716 78.5127 41.4196C78.8382 41.6996 80.7891 40.9451 81.7146 39.8651C83.0364 38.3251 84.52 36.7742 85.4655 34.9142C84.5582 31.9941 86.0364 28.2869 88.1582 26.1742C89.5436 24.7942 93.4927 23.936 95 26.6578C95.38 27.3451 95.2764 28.6778 95.0182 29.3905C93.9327 32.3723 91.4927 34.3578 88.4091 35.2323C89.1836 37.6378 92.9546 37.6523 94.4927 36.4796C96.0309 35.3069 97.1727 33.8905 98.5291 32.4396C98.9509 32.7323 99.3545 32.8505 100.018 32.9123L100.027 32.9232ZM69.5291 2.71597C69.66 2.5087 69.56 2.24688 69.38 2.45415C69.2418 2.58324 69.0727 2.49415 69.0291 2.61961C68.9909 2.7287 69.0236 2.83779 69.1236 2.89415C69.2327 2.95415 69.3255 2.87233 69.5291 2.71597ZM77.9491 24.8869C78.1491 24.0614 78.2673 23.256 78.4236 22.4269C78.84 20.2178 79.6836 18.2105 79.8709 15.9087C78.4655 20.0396 77.5 24.2778 77.0273 28.6396C76.8546 30.2414 76.4818 32.6523 76.7546 33.7614L76.9782 31.9105C77.2836 29.3905 77.2782 27.6632 77.9491 24.8851V24.8869ZM76.2146 22.516C76.4218 21.6887 76.7655 20.8905 76.6091 19.9378C76.4727 20.7196 75.8746 21.9523 76.2146 22.516ZM76.2055 29.7269L76.7636 26.5614C76.8491 26.0796 77.6055 23.3905 76.8891 23.3923C76.6782 23.8069 77.0582 24.4978 76.7927 24.7632C76.3455 25.2123 76.66 25.5632 76.5655 25.9723C76.4164 26.616 75.9564 27.0578 76.1546 27.8414C76.3055 28.4378 75.8764 29.1905 76.2055 29.7251V29.7269ZM75.12 28.8251C75.5073 27.5105 75.4236 26.4451 75.6782 25.316C75.8146 24.7105 76.1109 24.1287 75.8418 23.5669C75.4527 24.5996 75.4818 25.5941 75.3073 26.6069C75.1709 27.396 74.8055 28.1341 75.1218 28.8251H75.12ZM88.6946 31.9905C89.8127 31.6723 92.8146 28.3469 92.2455 26.9541C90.64 27.8232 89.6236 29.3014 88.9527 30.9723C88.8255 31.2923 88.5164 31.5323 88.6927 31.9887L88.6946 31.9905ZM93.3873 31.0032C94.0636 30.3141 94.8309 29.4232 94.5727 28.2941C94.4964 29.4651 93.3709 30.0887 93.3873 31.0032ZM87.8455 31.936C88.3473 30.9941 88.7164 30.1996 89.0164 29.1723C88.3618 29.9942 87.6964 30.7941 87.8455 31.936ZM55.1491 33.7287C55.0855 32.3396 55.9418 30.4342 55.6709 29.7305C54.86 31.9723 54.4436 34.3105 54.7655 36.6705C55.0018 35.6723 54.6891 34.7305 55.1491 33.7287ZM62.3309 35.7723C62.1418 33.7942 62.5382 32.0614 62.64 30.0942C62.2109 30.9942 61.3964 35.1451 62.3309 35.7723ZM66.1564 34.9123C66.0673 33.3105 66.86 31.1469 66.5691 30.4578C66.1455 31.4251 66.1964 32.3851 66.0709 33.3432C65.9382 34.3523 65.6491 35.2542 65.7655 36.296C66.4909 36.056 66.1927 35.5541 66.1564 34.9123ZM68.7346 30.4705C68.4164 31.436 68.1382 32.3305 68.3964 33.2232C68.3655 32.296 69.1073 30.5323 68.7346 30.4705ZM93.2182 31.2105C93.2182 31.1469 93.1673 31.096 93.1036 31.096C93.04 31.096 92.9891 31.1469 92.9891 31.2105C92.9891 31.2742 93.04 31.3251 93.1036 31.3251C93.1673 31.3251 93.2182 31.2742 93.2182 31.2105ZM52.7946 34.4542C52.9436 33.3341 53.2782 32.3541 53.1691 31.1887L52.7364 32.8741C52.6055 33.3869 52.6164 33.936 52.7946 34.4542ZM61.4018 32.6614H61.22V35.8378H61.4018V32.6614ZM68.0327 35.1978C67.6727 35.4142 67.6636 36.9105 68.0655 37.4087C67.9709 36.5632 68.5746 34.8705 68.0327 35.1978Z" fill="white"/>
<path d="M49.7545 32.3745C50.4545 33.9235 50.74 35.689 50.3691 37.2708C50.0327 38.709 48.5164 39.3254 47.1582 39.4999C45.5982 39.6999 44.1091 39.1763 42.7636 38.3999C39.7364 36.6508 39.8145 32.2963 41.4273 30.8908C42.2273 30.1945 43.3345 30.5617 44.3091 30.7308L44.46 32.0326C42.9855 33.3617 43.1109 36.3381 44.8327 37.1726C45.4455 37.4708 46.3727 37.669 46.9673 37.0999C47.4418 36.6472 47.1473 35.8145 47.2291 35.209C47.6164 32.3599 45.4273 33.0417 44.7309 29.1545C44.6 28.4199 44.3 27.8363 44.3709 27.1217C44.6636 24.1363 46.9145 22.1272 50.0236 22.4963C51.5782 22.6799 52.7164 24.2981 52.4891 25.9126C52.4527 26.1654 52.2455 26.3108 52.0109 26.4763C51.8473 25.6672 52.1273 24.7454 51.4291 24.0617C51.4127 25.1563 51.7764 26.0036 51.5436 27.049C51.2236 26.8563 51.1455 26.5108 50.9491 26.1163L50.7527 27.4999C50.0291 27.2817 50.0509 26.6145 49.8745 26.1181C49.5927 26.4617 50.0291 26.8581 49.5418 27.1435C49.0218 26.1599 49.5345 24.7526 48.6945 24.4908C47.2345 25.1435 47.3945 28.8472 47.9891 29.9108C48.4764 30.7799 49.3182 31.3999 49.7564 32.369L49.7545 32.3745ZM47.1873 29.5636C47.1018 28.4836 47.02 27.7617 47.0127 26.8145C46.4036 27.6963 46.6473 28.7417 47.1873 29.5636ZM41.2782 33.3108L40.9564 32.4708C40.5982 33.1163 40.6073 33.7308 40.7764 34.3145C40.9255 33.9199 40.9564 33.6345 41.28 33.3126L41.2782 33.3108ZM42.7909 34.4108C43.1145 33.4326 43.3855 33.0654 43.1582 32.4726C42.8127 33.1854 42.5036 33.8199 42.7909 34.4108ZM49.5964 37.5126C50.2109 36.089 50.0218 34.6508 49.4891 33.3454C49.2636 34.2326 49.7455 34.9272 49.7855 35.7454C49.8145 36.3617 49.3309 36.8636 49.5982 37.5126H49.5964ZM48.9418 36.2635C49.2055 35.4199 49.0091 34.669 48.7509 33.9017C48.5691 34.7726 48.9218 35.4417 48.9418 36.2635Z" fill="white"/>
<path d="M71.0127 23.2289C71.54 23.6525 71.52 24.4034 71.2073 25.0743C70.9491 25.6271 70.3382 25.858 69.6127 25.9198C68.7727 25.9907 68.0182 25.6434 67.8164 24.8652C67.5818 23.9507 68.0164 23.2089 68.8345 22.8616C69.6527 22.5143 70.2127 22.5871 71.0127 23.2289Z" fill="white"/>
</g>
<defs>
<clipPath id="clip0_44_538">
<rect width="117.973" height="43" fill="white"/>
</clipPath>
</defs>
</svg>
