<svg width="456" height="110" viewBox="0 0 456 110" fill="none" xmlns="http://www.w3.org/2000/svg">
<path d="M29.52 54.0205C28.3798 53.7694 27.3029 53.5936 26.2893 53.4931C25.318 53.4429 24.051 53.4178 22.4884 53.4178H0V53.2671C0.929099 52.5137 1.7315 51.1826 2.40721 49.274C3.08292 47.3653 3.42078 44.9795 3.42078 42.1164V12.0548C3.42078 9.29224 3.08292 6.98174 2.40721 5.12329C1.7315 3.21461 0.929099 1.90868 0 1.20548V1.05479H15.5202V1.20548C14.5911 1.95891 13.7887 3.28996 13.113 5.19863C12.4373 7.10731 12.0994 9.49315 12.0994 12.3562V45.8836H18.3708C21.1581 45.8836 23.6287 45.3311 25.7825 44.226C27.9363 43.0708 29.689 41.363 31.0404 39.1027L31.1671 39.1781L29.52 54.0205Z" fill="#321D16"/>
<path d="M66.9402 39.0274L65.1665 54.0205C63.984 53.7694 62.8437 53.5936 61.7457 53.4931C60.6899 53.4429 59.254 53.4178 57.4381 53.4178H35.0763V53.2671C36.0054 52.5137 36.8078 51.1826 37.4835 49.274C38.1592 47.3653 38.4971 44.9795 38.4971 42.1164V12.3562C38.4971 9.44292 38.1592 7.05708 37.4835 5.19863C36.8078 3.28996 36.0054 1.95891 35.0763 1.20548V1.05479H57.8181C60.8166 1.05479 63.0549 0.853882 64.533 0.452058L65.6099 13.9384L65.4832 14.0137C64.723 12.1553 63.4983 10.774 61.809 9.86987C60.1198 8.91553 58.0293 8.43836 55.5376 8.43836H47.1757V21.6986H51.9901C54.6507 21.6986 56.6145 21.6735 57.8815 21.6233C59.1484 21.5228 60.4787 21.3721 61.8724 21.1712L60.0353 33.8288H59.9086C59.4018 32.1712 58.5783 30.9658 57.4381 30.2123C56.2978 29.4589 54.8197 29.0822 53.0037 29.0822H47.1757V46.0342H54.0806C56.8679 46.0342 59.3385 45.4315 61.4923 44.226C63.6884 43.0205 65.4621 41.2626 66.8135 38.9521L66.9402 39.0274Z" fill="#321D16"/>
<path d="M128.046 25.3904V25.5411C127.328 26.0936 126.8 27.2489 126.462 29.0068C126.124 30.7648 125.956 33.3265 125.956 36.6918V49.1233C123.844 50.7306 121.331 52.0365 118.417 53.0411C115.503 54.0457 112.779 54.5479 110.245 54.5479C105.895 54.5479 102.031 53.4178 98.6527 51.1575C95.2741 48.8973 92.6346 45.758 90.7342 41.7397C88.876 37.7215 87.9469 33.1256 87.9469 27.9521C87.9469 22.226 88.9182 17.2534 90.8609 13.0342C92.8458 8.81507 95.612 5.60046 99.1594 3.39041C102.707 1.13014 106.825 0 111.512 0C115.904 0 119.916 0.678082 123.548 2.03425L124.499 14.3151L124.372 14.3904C121.12 10.0708 116.77 7.91096 111.322 7.91096C106.93 7.91096 103.488 9.64384 100.997 13.1096C98.5471 16.5251 97.3224 21.2215 97.3224 27.1986C97.3224 33.1758 98.526 37.8973 100.933 41.363C103.34 44.8288 106.656 46.5616 110.879 46.5616C113.539 46.5616 115.862 46.0091 117.847 44.9041V32.6233C113.582 32.7237 110.435 34.0297 108.408 36.5411L108.282 36.4658L109.295 24.9384C110.689 25.2397 113.265 25.3904 117.023 25.3904H128.046Z" fill="#321D16"/>
<path d="M164.67 43.2466C167.12 47.9178 169.865 50.8562 172.906 52.0616V52.2123L159.919 55C159.117 52.137 158.04 49.3493 156.689 46.637L146.87 26.6712H149.91C152.698 26.6712 154.809 25.9429 156.245 24.4863C157.681 22.9795 158.399 20.5936 158.399 17.3288C158.399 14.5662 157.66 12.3813 156.182 10.774C154.704 9.16667 152.613 8.38813 149.91 8.43836L145.476 8.5137V42.4178C145.476 45.1301 145.793 47.4406 146.426 49.3493C147.06 51.2078 147.799 52.5137 148.643 53.2671V53.4178H133.377V53.2671C134.306 52.5639 135.108 51.258 135.784 49.3493C136.46 47.3904 136.797 44.9795 136.797 42.1164V12.0548C136.797 9.29224 136.46 6.98174 135.784 5.12329C135.108 3.21461 134.306 1.90868 133.377 1.20548V1.05479H151.367C156.393 1.05479 160.32 2.4863 163.15 5.34932C165.98 8.1621 167.394 12.0297 167.394 16.9521C167.394 20.8699 166.634 24.0845 165.114 26.5959C163.636 29.0571 161.524 30.8151 158.779 31.8699L164.67 43.2466Z" fill="#321D16"/>
<path d="M212.245 41.0616C213.047 43.774 214.04 46.2603 215.222 48.5205C216.405 50.7306 217.482 52.3128 218.453 53.2671V53.4178H204.136V53.2671C204.812 52.6644 205.15 51.5091 205.15 49.8014C205.15 48.1941 204.812 46.2603 204.136 44L203.566 42.1918H187.223L186.652 44C185.977 46.0594 185.639 47.968 185.639 49.726C185.639 51.484 185.935 52.6644 186.526 53.2671V53.4178H173.223V53.2671C174.194 52.2626 175.25 50.6553 176.39 48.4452C177.573 46.2352 178.565 43.774 179.368 41.0616L188.426 10.0205C188.806 8.66438 188.996 7.43379 188.996 6.32877C188.996 5.17352 188.827 4.14384 188.49 3.23973C188.152 2.33562 187.751 1.65754 187.286 1.20548V1.05479H204.073V1.20548C203.609 1.70776 203.207 2.41096 202.87 3.31507C202.532 4.16895 202.363 5.17352 202.363 6.32877C202.363 7.43379 202.553 8.66438 202.933 10.0205L212.245 41.0616ZM195.204 11.0753C194.951 13.637 194.55 16.0731 194.001 18.3836C193.452 20.6438 192.671 23.4566 191.657 26.8219L189.313 34.8082H201.476L199.132 26.8219C198.076 23.2055 197.274 20.3174 196.725 18.1575C196.176 15.9977 195.753 13.637 195.458 11.0753H195.204Z" fill="#321D16"/>
<path d="M221.036 53.2671C221.966 52.5137 222.768 51.1826 223.444 49.274C224.119 47.3653 224.457 44.9795 224.457 42.1164V11.9795C224.457 9.76941 224.162 7.65982 223.57 5.65069C222.979 3.59133 222.134 2.10959 221.036 1.20548V1.05479H235.416C235.501 1.90868 235.712 2.86302 236.05 3.91781C236.388 4.92238 237.042 6.379 238.014 8.28767L247.136 26.5205C248.909 30.0868 250.852 35.0594 252.964 41.4384H253.217C252.541 36.8676 252.204 31.6941 252.204 25.9178V12.3562C252.204 9.44292 251.887 7.03196 251.253 5.12329C250.662 3.21461 249.902 1.90868 248.973 1.20548V1.05479H263.606V1.20548C262.677 1.90868 261.875 3.23973 261.199 5.19863C260.523 7.10731 260.185 9.49315 260.185 12.3562V42.1164C260.185 44.9795 260.523 47.3904 261.199 49.3493C261.875 51.258 262.677 52.5639 263.606 53.2671V53.4178H250.24C249.48 51.258 248.424 48.8721 247.072 46.2603L238.14 29.0068C236.662 26.1438 235.438 23.4566 234.466 20.9452C233.495 18.3836 232.523 15.3447 231.552 11.8288H231.299C231.763 15.0936 232.059 18.032 232.186 20.6438C232.355 23.2557 232.439 26.1438 232.439 29.3082V42.1164C232.439 45.0297 232.735 47.4406 233.326 49.3493C233.959 51.258 234.741 52.5639 235.67 53.2671V53.4178H221.036V53.2671Z" fill="#321D16"/>
<path d="M271.084 53.2671C272.013 52.5137 272.815 51.1826 273.491 49.274C274.167 47.3653 274.504 44.9795 274.504 42.1164V12.3562C274.504 9.7443 274.145 7.40868 273.427 5.34932C272.752 3.28996 271.97 1.90868 271.084 1.20548V1.05479H289.454C293.889 1.05479 297.753 2.10959 301.047 4.21918C304.383 6.27854 306.96 9.26712 308.775 13.1849C310.591 17.1027 311.499 21.774 311.499 27.1986C311.499 35.5868 309.578 42.0662 305.735 46.637C301.892 51.1575 296.127 53.4178 288.441 53.4178H271.084V53.2671ZM289.074 45.9589C293.298 45.9589 296.528 44.3516 298.767 41.137C301.005 37.9224 302.124 33.2763 302.124 27.1986C302.124 20.8196 301.026 16.1233 298.83 13.1096C296.634 10.0457 293.276 8.5137 288.758 8.5137H283.183V45.9589H289.074Z" fill="#321D16"/>
<path d="M351.168 1.05479C356.236 1.05479 360.164 2.53653 362.951 5.5C365.738 8.46347 367.132 12.6575 367.132 18.0822C367.132 24.1096 365.76 28.6301 363.014 31.6438C360.269 34.6575 356.321 36.1644 351.168 36.1644H345.974V42.4178C345.974 45.1804 346.312 47.516 346.988 49.4247C347.663 51.2831 348.466 52.5639 349.395 53.2671V53.4178H333.875V53.2671C334.804 52.5137 335.606 51.1826 336.282 49.274C336.957 47.3653 337.295 44.9795 337.295 42.1164V12.0548C337.295 9.29224 336.957 6.98174 336.282 5.12329C335.606 3.21461 334.804 1.90868 333.875 1.20548V1.05479H351.168ZM349.711 28.7055C355.328 28.7557 358.137 25.3904 358.137 18.6096C358.137 15.1438 357.44 12.6073 356.046 11C354.695 9.34247 352.583 8.5137 349.711 8.5137H345.974V28.6301L349.711 28.7055Z" fill="#321D16"/>
<path d="M404.639 41.0616C405.441 43.774 406.434 46.2603 407.616 48.5205C408.799 50.7306 409.876 52.3128 410.847 53.2671V53.4178H396.53V53.2671C397.206 52.6644 397.544 51.5091 397.544 49.8014C397.544 48.1941 397.206 46.2603 396.53 44L395.96 42.1918H379.617L379.046 44C378.371 46.0594 378.033 47.968 378.033 49.726C378.033 51.484 378.328 52.6644 378.92 53.2671V53.4178H365.617V53.2671C366.588 52.2626 367.644 50.6553 368.784 48.4452C369.967 46.2352 370.959 43.774 371.761 41.0616L380.82 10.0205C381.2 8.66438 381.39 7.43379 381.39 6.32877C381.39 5.17352 381.221 4.14384 380.883 3.23973C380.546 2.33562 380.144 1.65754 379.68 1.20548V1.05479H396.467V1.20548C396.002 1.70776 395.601 2.41096 395.263 3.31507C394.926 4.16895 394.757 5.17352 394.757 6.32877C394.757 7.43379 394.947 8.66438 395.327 10.0205L404.639 41.0616ZM387.598 11.0753C387.345 13.637 386.944 16.0731 386.395 18.3836C385.846 20.6438 385.064 23.4566 384.051 26.8219L381.707 34.8082H393.87L391.526 26.8219C390.47 23.2055 389.668 20.3174 389.119 18.1575C388.57 15.9977 388.147 13.637 387.852 11.0753H387.598Z" fill="#321D16"/>
<path d="M413.43 53.2671C414.359 52.5137 415.162 51.1826 415.837 49.274C416.513 47.3653 416.851 44.9795 416.851 42.1164V11.9795C416.851 9.76941 416.555 7.65982 415.964 5.65069C415.373 3.59133 414.528 2.10959 413.43 1.20548V1.05479H427.81C427.895 1.90868 428.106 2.86302 428.444 3.91781C428.782 4.92238 429.436 6.379 430.408 8.28767L439.53 26.5205C441.303 30.0868 443.246 35.0594 445.358 41.4384H445.611C444.935 36.8676 444.597 31.6941 444.597 25.9178V12.3562C444.597 9.44292 444.281 7.03196 443.647 5.12329C443.056 3.21461 442.296 1.90868 441.367 1.20548V1.05479H456V1.20548C455.071 1.90868 454.268 3.23973 453.593 5.19863C452.917 7.10731 452.579 9.49315 452.579 12.3562V42.1164C452.579 44.9795 452.917 47.3904 453.593 49.3493C454.268 51.258 455.071 52.5639 456 53.2671V53.4178H442.634C441.873 51.258 440.818 48.8721 439.466 46.2603L430.534 29.0068C429.056 26.1438 427.831 23.4566 426.86 20.9452C425.889 18.3836 424.917 15.3447 423.946 11.8288H423.693C424.157 15.0936 424.453 18.032 424.58 20.6438C424.748 23.2557 424.833 26.1438 424.833 29.3082V42.1164C424.833 45.0297 425.129 47.4406 425.72 49.3493C426.353 51.258 427.135 52.5639 428.064 53.2671V53.4178H413.43V53.2671Z" fill="#321D16"/>
<path d="M136.569 97.392C136.585 98.864 136.145 100 135.249 100.8C134.353 101.6 133.169 102 131.697 102H126.705C126.545 102 126.465 101.92 126.465 101.76V85.44C126.465 85.28 126.545 85.2 126.705 85.2H131.433C132.985 85.2 134.201 85.584 135.081 86.352C135.961 87.104 136.401 88.208 136.401 89.664C136.401 91.376 135.697 92.568 134.289 93.24C134.209 93.288 134.209 93.328 134.289 93.36C135.025 93.744 135.585 94.272 135.969 94.944C136.369 95.616 136.569 96.432 136.569 97.392ZM128.865 87.192C128.801 87.192 128.769 87.224 128.769 87.288V92.352C128.769 92.416 128.801 92.448 128.865 92.448H131.457C132.289 92.448 132.937 92.224 133.401 91.776C133.881 91.312 134.121 90.68 134.121 89.88C134.121 89.032 133.881 88.376 133.401 87.912C132.937 87.432 132.289 87.192 131.457 87.192H128.865ZM131.601 99.984C132.433 99.984 133.081 99.736 133.545 99.24C134.025 98.728 134.265 98.032 134.265 97.152C134.265 96.272 134.025 95.576 133.545 95.064C133.065 94.536 132.409 94.272 131.577 94.272H128.865C128.801 94.272 128.769 94.304 128.769 94.368V99.888C128.769 99.952 128.801 99.984 128.865 99.984H131.601ZM142.066 102C141.906 102 141.826 101.92 141.826 101.76V85.44C141.826 85.28 141.906 85.2 142.066 85.2H143.89C144.05 85.2 144.13 85.28 144.13 85.44V101.76C144.13 101.92 144.05 102 143.89 102H142.066ZM154.407 102.192C153.383 102.192 152.479 102.008 151.695 101.64C150.927 101.256 150.327 100.728 149.895 100.056C149.479 99.384 149.271 98.6 149.271 97.704V97.056C149.271 96.896 149.351 96.816 149.511 96.816H151.287C151.447 96.816 151.527 96.896 151.527 97.056V97.584C151.527 98.368 151.791 99 152.319 99.48C152.863 99.96 153.591 100.2 154.503 100.2C155.319 100.2 155.959 99.984 156.423 99.552C156.903 99.104 157.143 98.52 157.143 97.8C157.143 97.32 157.023 96.904 156.783 96.552C156.543 96.2 156.191 95.872 155.727 95.568C155.279 95.264 154.623 94.88 153.759 94.416C152.783 93.904 151.999 93.448 151.407 93.048C150.831 92.648 150.351 92.144 149.967 91.536C149.583 90.928 149.391 90.192 149.391 89.328C149.391 87.984 149.831 86.928 150.711 86.16C151.591 85.392 152.759 85.008 154.215 85.008C155.223 85.008 156.111 85.2 156.879 85.584C157.647 85.968 158.239 86.512 158.655 87.216C159.087 87.904 159.303 88.704 159.303 89.616V90.168C159.303 90.328 159.223 90.408 159.063 90.408H157.263C157.103 90.408 157.023 90.328 157.023 90.168V89.664C157.023 88.88 156.767 88.24 156.255 87.744C155.743 87.248 155.047 87 154.167 87C153.383 87 152.767 87.2 152.319 87.6C151.887 88 151.671 88.568 151.671 89.304C151.671 89.784 151.775 90.192 151.983 90.528C152.207 90.864 152.543 91.184 152.991 91.488C153.439 91.776 154.103 92.144 154.983 92.592C156.087 93.216 156.919 93.728 157.479 94.128C158.055 94.528 158.519 95.016 158.871 95.592C159.239 96.168 159.423 96.864 159.423 97.68C159.423 99.056 158.967 100.152 158.055 100.968C157.159 101.784 155.943 102.192 154.407 102.192ZM173.611 85.2C173.771 85.2 173.851 85.28 173.851 85.44V86.976C173.851 87.136 173.771 87.216 173.611 87.216H169.747C169.683 87.216 169.651 87.248 169.651 87.312V101.76C169.651 101.92 169.571 102 169.411 102H167.587C167.427 102 167.347 101.92 167.347 101.76V87.312C167.347 87.248 167.315 87.216 167.251 87.216H163.555C163.395 87.216 163.315 87.136 163.315 86.976V85.44C163.315 85.28 163.395 85.2 163.555 85.2H173.611ZM186.903 102C186.775 102 186.687 101.936 186.639 101.808L183.855 94.656C183.839 94.608 183.807 94.584 183.759 94.584H181.191C181.127 94.584 181.095 94.616 181.095 94.68V101.76C181.095 101.92 181.015 102 180.855 102H179.031C178.871 102 178.791 101.92 178.791 101.76V85.44C178.791 85.28 178.871 85.2 179.031 85.2H184.407C185.751 85.2 186.831 85.64 187.647 86.52C188.463 87.4 188.871 88.552 188.871 89.976C188.871 91.048 188.623 91.968 188.127 92.736C187.631 93.504 186.951 94.032 186.087 94.32C186.039 94.336 186.023 94.376 186.039 94.44L188.967 101.712L188.991 101.808C188.991 101.936 188.919 102 188.775 102H186.903ZM181.191 87.192C181.127 87.192 181.095 87.224 181.095 87.288V92.664C181.095 92.728 181.127 92.76 181.191 92.76H184.095C184.831 92.76 185.423 92.512 185.871 92.016C186.335 91.504 186.567 90.832 186.567 90C186.567 89.152 186.343 88.472 185.895 87.96C185.447 87.448 184.847 87.192 184.095 87.192H181.191ZM198.74 102.216C197.716 102.216 196.812 102.008 196.028 101.592C195.26 101.16 194.66 100.56 194.228 99.792C193.796 99.024 193.58 98.136 193.58 97.128V90.072C193.58 89.08 193.796 88.2 194.228 87.432C194.66 86.664 195.26 86.072 196.028 85.656C196.812 85.224 197.716 85.008 198.74 85.008C199.764 85.008 200.668 85.224 201.452 85.656C202.236 86.072 202.844 86.664 203.276 87.432C203.708 88.2 203.924 89.08 203.924 90.072V97.128C203.924 98.136 203.708 99.024 203.276 99.792C202.844 100.56 202.236 101.16 201.452 101.592C200.668 102.008 199.764 102.216 198.74 102.216ZM198.74 100.2C199.604 100.2 200.3 99.928 200.828 99.384C201.356 98.84 201.62 98.12 201.62 97.224V90.024C201.62 89.128 201.356 88.4 200.828 87.84C200.3 87.28 199.604 87 198.74 87C197.892 87 197.204 87.28 196.676 87.84C196.148 88.4 195.884 89.128 195.884 90.024V97.224C195.884 98.104 196.148 98.824 196.676 99.384C197.204 99.928 197.892 100.2 198.74 100.2ZM218.686 85.2C218.846 85.2 218.926 85.28 218.926 85.44V86.976C218.926 87.136 218.846 87.216 218.686 87.216H214.822C214.758 87.216 214.726 87.248 214.726 87.312V101.76C214.726 101.92 214.646 102 214.486 102H212.662C212.502 102 212.422 101.92 212.422 101.76V87.312C212.422 87.248 212.39 87.216 212.326 87.216H208.63C208.47 87.216 208.39 87.136 208.39 86.976V85.44C208.39 85.28 208.47 85.2 208.63 85.2H218.686Z" fill="#321D16"/>
<circle cx="243.5" cy="92.4999" r="2.76313" fill="#321D16"/>
<path d="M273.535 85.176C274.895 85.176 275.983 85.624 276.799 86.52C277.631 87.4 278.047 88.568 278.047 90.024C278.047 91.448 277.631 92.6 276.799 93.48C275.983 94.344 274.895 94.776 273.535 94.776H270.319C270.255 94.776 270.223 94.808 270.223 94.872V101.76C270.223 101.92 270.143 102 269.983 102H268.159C267.999 102 267.919 101.92 267.919 101.76V85.416C267.919 85.256 267.999 85.176 268.159 85.176H273.535ZM273.199 92.928C273.967 92.928 274.583 92.672 275.047 92.16C275.527 91.632 275.767 90.936 275.767 90.072C275.767 89.192 275.527 88.488 275.047 87.96C274.583 87.432 273.967 87.168 273.199 87.168H270.319C270.255 87.168 270.223 87.2 270.223 87.264V92.832C270.223 92.896 270.255 92.928 270.319 92.928H273.199ZM290.557 102C290.413 102 290.325 101.928 290.293 101.784L289.573 99C289.557 98.952 289.517 98.928 289.453 98.928H284.149C284.069 98.928 284.029 98.952 284.029 99L283.333 101.784C283.317 101.928 283.229 102 283.069 102H281.197C281.117 102 281.053 101.976 281.005 101.928C280.973 101.88 280.965 101.816 280.981 101.736L285.421 85.416C285.453 85.272 285.541 85.2 285.685 85.2H287.941C288.085 85.2 288.173 85.272 288.205 85.416L292.669 101.736L292.693 101.808C292.693 101.936 292.613 102 292.453 102H290.557ZM284.533 97.008C284.517 97.024 284.517 97.048 284.533 97.08C284.565 97.096 284.597 97.104 284.629 97.104H288.973C289.005 97.104 289.029 97.096 289.045 97.08C289.077 97.048 289.085 97.024 289.069 97.008L286.837 88.32C286.821 88.288 286.805 88.272 286.789 88.272C286.773 88.272 286.757 88.288 286.741 88.32L284.533 97.008ZM305.466 102C305.338 102 305.25 101.936 305.202 101.808L302.418 94.656C302.402 94.608 302.37 94.584 302.322 94.584H299.754C299.69 94.584 299.658 94.616 299.658 94.68V101.76C299.658 101.92 299.578 102 299.418 102H297.594C297.434 102 297.354 101.92 297.354 101.76V85.44C297.354 85.28 297.434 85.2 297.594 85.2H302.97C304.314 85.2 305.394 85.64 306.21 86.52C307.026 87.4 307.434 88.552 307.434 89.976C307.434 91.048 307.186 91.968 306.69 92.736C306.194 93.504 305.514 94.032 304.65 94.32C304.602 94.336 304.586 94.376 304.602 94.44L307.53 101.712L307.554 101.808C307.554 101.936 307.482 102 307.338 102H305.466ZM299.754 87.192C299.69 87.192 299.658 87.224 299.658 87.288V92.664C299.658 92.728 299.69 92.76 299.754 92.76H302.658C303.394 92.76 303.986 92.512 304.434 92.016C304.898 91.504 305.13 90.832 305.13 90C305.13 89.152 304.906 88.472 304.458 87.96C304.01 87.448 303.41 87.192 302.658 87.192H299.754ZM312.79 102C312.63 102 312.55 101.92 312.55 101.76V85.44C312.55 85.28 312.63 85.2 312.79 85.2H314.614C314.774 85.2 314.854 85.28 314.854 85.44V101.76C314.854 101.92 314.774 102 314.614 102H312.79ZM325.132 102.192C324.108 102.192 323.204 102.008 322.42 101.64C321.652 101.256 321.052 100.728 320.62 100.056C320.204 99.384 319.996 98.6 319.996 97.704V97.056C319.996 96.896 320.076 96.816 320.236 96.816H322.012C322.172 96.816 322.252 96.896 322.252 97.056V97.584C322.252 98.368 322.516 99 323.044 99.48C323.588 99.96 324.316 100.2 325.228 100.2C326.044 100.2 326.684 99.984 327.148 99.552C327.628 99.104 327.868 98.52 327.868 97.8C327.868 97.32 327.748 96.904 327.508 96.552C327.268 96.2 326.916 95.872 326.452 95.568C326.004 95.264 325.348 94.88 324.484 94.416C323.508 93.904 322.724 93.448 322.132 93.048C321.556 92.648 321.076 92.144 320.692 91.536C320.308 90.928 320.116 90.192 320.116 89.328C320.116 87.984 320.556 86.928 321.436 86.16C322.316 85.392 323.484 85.008 324.94 85.008C325.948 85.008 326.836 85.2 327.604 85.584C328.372 85.968 328.964 86.512 329.38 87.216C329.812 87.904 330.028 88.704 330.028 89.616V90.168C330.028 90.328 329.948 90.408 329.788 90.408H327.988C327.828 90.408 327.748 90.328 327.748 90.168V89.664C327.748 88.88 327.492 88.24 326.98 87.744C326.468 87.248 325.772 87 324.892 87C324.108 87 323.492 87.2 323.044 87.6C322.612 88 322.396 88.568 322.396 89.304C322.396 89.784 322.5 90.192 322.708 90.528C322.932 90.864 323.268 91.184 323.716 91.488C324.164 91.776 324.828 92.144 325.708 92.592C326.812 93.216 327.644 93.728 328.204 94.128C328.78 94.528 329.244 95.016 329.596 95.592C329.964 96.168 330.148 96.864 330.148 97.68C330.148 99.056 329.692 100.152 328.78 100.968C327.884 101.784 326.668 102.192 325.132 102.192Z" fill="#321D16"/>
</svg>
