<svg width="232" height="172" viewBox="0 0 232 172" fill="none" xmlns="http://www.w3.org/2000/svg">
<g filter="url(#filter0_n_155_12)">
<path d="M122.647 18.6978C123.867 18.2529 125.227 18.4276 126.294 19.1663L137.377 26.8348C138.169 27.3833 139.133 27.6271 140.091 27.5214L154.892 25.8878C156.266 25.7362 157.62 26.3045 158.475 27.3908L165.329 36.1047C165.999 36.9573 166.987 37.501 168.066 37.6112L182.851 39.1206C184.48 39.2868 185.843 40.4287 186.291 42.003L188.593 50.0758C188.96 51.3617 189.945 52.3793 191.218 52.7878L203.779 56.8172C205.703 57.4343 206.865 59.3895 206.487 61.3743L205.303 67.5907C204.989 69.238 205.736 70.906 207.174 71.7689L215.998 77.0639C218.028 78.282 218.561 80.9867 217.146 82.8846L213.646 87.5791C212.492 89.1279 212.609 91.2807 213.925 92.6949L218.954 98.0987C220.658 99.9301 220.282 102.859 218.17 104.2L211.939 108.158C210.308 109.193 209.65 111.246 210.376 113.037L212.576 118.464C213.465 120.657 212.265 123.139 209.993 123.805L200.118 126.698C198.509 127.169 197.364 128.594 197.252 130.267L196.826 136.581C196.69 138.597 195.072 140.195 193.054 140.306L179.882 141.03C178.547 141.103 177.337 141.839 176.657 142.99L172.39 150.219C171.558 151.629 169.95 152.389 168.332 152.138L153.646 149.862C152.574 149.696 151.481 149.972 150.617 150.627L141.783 157.326C140.682 158.161 139.227 158.369 137.937 157.875L124.029 152.553C123.129 152.209 122.135 152.201 121.229 152.531L108.568 157.15C107.349 157.595 105.989 157.42 104.922 156.681L93.8393 149.013C93.0466 148.464 92.0825 148.22 91.1244 148.326L76.3239 149.96C74.9502 150.111 73.5955 149.543 72.741 148.457L65.8872 139.743C65.2166 138.89 64.2285 138.346 63.1494 138.236L48.3647 136.727C46.7361 136.561 45.3732 135.419 44.9243 133.844L42.6224 125.772C42.2557 124.486 41.2707 123.468 39.9975 123.06L27.4363 119.03C25.5123 118.413 24.3507 116.458 24.7287 114.473L25.9126 108.257C26.2263 106.609 25.4793 104.941 24.0415 104.079L15.2181 98.7835C13.1883 97.5655 12.6545 94.8608 14.0695 92.9629L17.5694 88.2684C18.7241 86.7196 18.6068 84.5668 17.2907 83.1526L12.2619 77.7488C10.5575 75.9173 10.9338 72.9884 13.0458 71.6472L19.2771 67.6899C20.9079 66.6542 21.5655 64.601 20.8398 62.8106L18.64 57.3839C17.7508 55.19 18.9508 52.7081 21.2225 52.0426L31.0978 49.1496C32.7071 48.6782 33.8514 47.2531 33.9642 45.5801L34.39 39.2663C34.526 37.2503 36.144 35.6523 38.1615 35.5414L51.3333 34.8178C52.6684 34.7444 53.8786 34.0088 54.5584 32.8573L58.826 25.6285C59.6583 24.2187 61.2655 23.4584 62.8833 23.7092L77.5695 25.9857C78.6414 26.1518 79.7348 25.8755 80.5991 25.2201L89.4329 18.5215C90.5341 17.6864 91.9885 17.479 93.2793 17.9729L107.186 23.2943C108.087 23.6388 109.081 23.6466 109.987 23.3162L122.647 18.6978Z" fill="#EED5BA"/>
</g>
<path d="M44.4015 82.536C44.3785 82.5538 44.3708 82.5734 44.3784 82.5951C44.3859 82.6168 44.405 82.6296 44.4355 82.6335L48.2663 83.1256C48.3172 83.1321 48.3553 83.1577 48.3806 83.2023C48.4174 83.2381 48.4325 83.2814 48.426 83.3323L48.277 84.4922C48.2704 84.5431 48.2442 84.5863 48.1983 84.6217C48.1638 84.6483 48.1212 84.6584 48.0703 84.6518L42.1332 83.8891C42.0824 83.8826 42.0385 83.8615 42.0018 83.8257C41.9765 83.7811 41.9671 83.7333 41.9736 83.6825L42.1246 82.5073C42.1337 82.436 42.169 82.363 42.2303 82.2881C43.5119 81.0875 44.7005 79.9267 45.796 78.8056C46.6938 77.8556 47.1799 77.0906 47.2544 76.5107C47.308 76.0935 47.2335 75.7478 47.0308 75.4735C46.8295 75.1891 46.5355 75.022 46.1488 74.9724C45.7724 74.924 45.4514 75.0069 45.186 75.221C44.9206 75.4352 44.7618 75.7457 44.7095 76.1527L44.6448 76.6564C44.6383 76.7073 44.6121 76.7504 44.5661 76.7859C44.5317 76.8125 44.489 76.8225 44.4382 76.816L43.0188 76.6337C42.9679 76.6271 42.9241 76.606 42.8873 76.5702C42.862 76.5256 42.8526 76.4779 42.8591 76.427L42.9434 75.7707C43.0887 74.9619 43.4783 74.3449 44.1121 73.9195C44.7459 73.4941 45.5004 73.3377 46.3754 73.4501C46.9859 73.5285 47.5038 73.7243 47.929 74.0375C48.3554 74.3405 48.6627 74.7265 48.8507 75.1953C49.0489 75.6655 49.1126 76.1754 49.0421 76.7248C48.9819 77.1928 48.8188 77.658 48.5525 78.1202C48.2965 78.5838 47.929 79.0693 47.4501 79.5766C47.0057 80.0573 46.2779 80.7706 45.267 81.7164C45.0679 81.8976 44.7794 82.1708 44.4015 82.536ZM52.6317 85.4085C51.6753 85.2856 50.9437 84.902 50.4369 84.2577C49.9416 83.6045 49.7554 82.7997 49.8782 81.8433L50.4821 77.1425C50.605 76.1861 50.9879 75.4596 51.6309 74.963C52.2841 74.4677 53.0889 74.2815 54.0453 74.4043C55.0119 74.5285 55.7435 74.9121 56.2401 75.5551C56.7469 76.1994 56.9388 76.9997 56.816 77.9562L56.2121 82.657C56.0892 83.6134 55.7006 84.3444 55.0461 84.8498C54.4031 85.3464 53.5983 85.5326 52.6317 85.4085ZM52.8297 83.867C53.2571 83.9219 53.6156 83.8283 53.9052 83.5862C54.1949 83.3442 54.3691 82.9942 54.428 82.5364L55.0554 77.6524C55.1155 77.1844 55.036 76.7967 54.8169 76.4893C54.5978 76.1819 54.2746 76.0007 53.8473 75.9458C53.4301 75.8922 53.0767 75.9865 52.787 76.2285C52.4974 76.4705 52.3225 76.8256 52.2624 77.2936L51.635 82.1776C51.5761 82.6354 51.6563 83.0181 51.8753 83.3255C52.0944 83.6329 52.4125 83.8134 52.8297 83.867Z" fill="#683626"/>
<path d="M127.526 34.6436C129.356 34.9491 131.706 35.5958 133.444 36.2281C133.987 36.4244 133.685 36.4054 134.057 36.5467C134.786 36.8266 135.481 37.0419 136.183 37.3555C136.415 37.46 136.077 37.4564 136.32 37.5637C137.661 38.1556 138.931 38.693 140.241 39.3817C146.681 42.7784 152.292 47.4607 156.75 53.2908C158.227 55.2104 159.751 57.7277 160.979 59.8976C161.124 60.1506 161.134 59.9475 161.168 59.992C161.698 60.6973 161.372 60.5429 161.607 61.06C162.537 63.1139 163.499 65.4204 164.236 67.4559C164.548 68.3239 164.456 67.3804 164.633 68.2996C164.645 68.3633 164.466 68.1757 164.532 68.4195C164.684 68.9707 165.009 70.0093 165.115 70.4395C165.319 71.2685 165.354 71.4053 165.54 72.1931C165.789 73.2679 165.989 74.5728 166.194 75.7349C166.239 75.984 166.303 75.6349 166.382 76.0317C166.465 76.4286 166.592 77.4953 166.602 77.8553C166.613 78.2167 166.506 78.0736 166.492 78.1391C166.376 78.6753 166.715 79.8878 166.728 80.0457C167.012 82.9418 166.811 85.4378 166.544 88.141C166.5 88.5743 166.451 89.0149 166.398 89.4591C166.2 91.0907 166.013 92.7618 165.813 94.2804C165.592 95.9581 165.365 97.4448 165.152 98.9954C165.072 99.5741 164.985 100.158 164.888 100.759C164.85 100.995 165.031 100.74 164.983 101.03C164.474 104.11 163.645 107.121 162.466 109.994C162.347 110.282 162.377 109.865 162.252 110.149C161.502 111.904 160.01 114.488 159.92 115.721C159.298 116.852 158.48 118.192 157.766 119.1C157.305 119.685 157.592 119.013 157.135 119.801C157.03 119.978 157.274 119.821 157.11 120.082C156.416 121.18 155.539 122.299 154.777 123.334C154.622 123.546 154.746 123.554 154.713 123.624C154.434 124.206 153.566 124.834 153.403 124.989C152.16 126.187 151.322 127.118 150.154 128.216C149.882 128.469 150.297 128.269 150.038 128.517C148.688 129.797 147.189 131.017 145.685 132.044C145.351 132.271 145.582 131.958 145.419 132.061C144.698 132.514 144.67 132.803 143.965 133.221C143.816 133.309 143.842 133.172 143.809 133.18C143.307 133.309 143.081 133.742 142.977 133.815C141.662 134.733 140.647 135.023 139.305 135.772C139.143 135.861 139.571 135.782 139.113 136.025C136.055 137.648 132.596 138.938 129.264 139.708C128.746 139.827 129.089 139.639 129.054 139.636C128.483 139.595 128.2 139.914 128.033 139.963C126.717 140.344 125.423 140.374 124.557 140.807C119.95 141.46 115.275 141.607 110.697 140.92C110.697 140.92 110.697 140.92 110.697 140.92C109.563 140.75 108.462 140.535 107.354 140.261C107.283 140.243 107.435 140.151 107.293 140.117C105.601 139.691 105.893 139.939 104.706 139.882C104.405 139.867 103.622 139.364 103.555 139.322C103.301 139.171 103.635 139.08 103.547 139.04C102.822 138.708 102.773 139.319 101.749 138.991C101.718 138.98 101.885 138.92 101.803 138.881C101.549 138.762 101.274 138.716 101.028 138.591C100.463 138.302 100.354 137.96 99.4093 137.777C99.2891 137.753 99.3396 138.142 98.4544 137.767C98.0978 137.622 96.5516 136.951 96.1328 136.72C95.7142 136.497 96.0549 136.539 96.0263 136.52C94.9453 135.836 95.4064 135.992 94.9389 135.517C94.477 135.04 94.3976 135.567 94.1415 135.495C93.8837 135.424 93.1257 134.87 92.9502 134.72C92.7732 134.571 93.0537 134.652 92.89 134.531C91.8096 133.723 92.2538 134.449 91.8305 134.291C90.8316 133.907 90.3467 133.145 89.5808 132.576C89.3734 132.421 89.4986 132.611 89.3045 132.486C88.5387 131.987 88.1629 131.569 87.2751 131.02C87.1304 130.931 86.3267 130.584 86.0123 130.106C85.9683 130.039 86.1959 130.107 85.9104 129.841C85.4831 129.446 84.7101 128.742 84.2308 128.339C83.8765 128.043 84.1592 128.516 83.7665 128.084C83.5932 127.891 84.0027 128.154 83.673 127.798C83.3437 127.446 82.467 126.579 82.143 126.241C81.8173 125.905 81.9098 126.17 81.878 126.149C81.6858 126.016 81.0322 125.391 80.9801 125.33C78.272 122.349 76.2893 119.187 74.3682 115.795C74.2181 115.528 74.2067 115.766 74.1827 115.726C73.6438 114.821 74.3196 115.401 74.0801 114.702C73.9069 114.91 73.7453 114.507 73.3979 113.855C73.2309 113.54 73.2281 113.757 73.205 113.732C72.8429 113.318 72.8623 112.9 72.8585 112.799C72.8433 112.421 72.5361 112.142 72.5296 111.886C72.5233 111.63 72.866 112.076 72.5883 111.428C72.4289 111.28 72.4173 111.856 72.1739 111.374C71.2212 109.561 70.2362 105.867 69.9035 104.274C69.542 102.683 69.4376 102.17 69.2976 101.228C69.072 99.5308 69.0055 100.177 68.7778 99.1283C68.5651 98.0734 69.0557 98.5415 69.1276 98.3783C69.2015 98.2194 69.0895 98.0677 69.1201 97.8771C69.151 97.6875 69.2543 98.0797 69.2285 97.6448C69.1993 97.2113 68.9452 96.0324 68.8431 95.8841C68.6219 95.5687 68.4338 96.1233 68.4514 94.9536C68.453 94.8865 68.5744 95.0989 68.5748 94.8421C68.5761 92.805 68.6305 90.6942 68.8827 88.6785C68.9177 88.4029 69.0202 88.6611 69.0421 88.5012C69.2685 86.95 69.0583 87.3436 68.9278 86.6342C68.9186 86.5823 68.9099 86.5245 68.9021 86.4595C69.1844 86.7049 69.4383 86.2225 69.6031 84.9538C69.7023 84.1912 69.5506 84.3052 69.519 83.7997C69.5094 83.648 69.6713 83.1201 69.6204 83.0142C69.4546 82.6651 69.1573 83.1436 69.4177 81.8473C69.4295 81.7905 69.5195 81.9878 69.5518 81.7903C69.7615 80.5141 69.5644 80.3329 69.7161 78.9438C69.7705 78.4458 69.8796 77.7749 69.9993 77.0755C70.142 76.2333 70.3251 75.3629 70.4566 74.6983C70.7939 74.7851 70.932 73.6109 70.8006 73.0922C70.979 72.3023 71.1734 71.4382 71.4092 70.6886C71.4905 70.4306 71.5421 70.6285 71.5615 70.5984C71.8631 70.1418 71.7361 69.7415 71.7772 69.5685C72.2342 67.7139 72.9228 66.3174 73.458 64.5744C73.4773 64.513 73.2926 64.3199 73.6488 63.9429C73.6726 63.9194 73.5349 64.5125 73.8838 63.7335C74.2314 62.954 75.0411 61.5588 75.5056 60.4648C75.6159 60.1994 75.7936 59.4639 76.2203 59.0369C76.2773 58.9803 76.295 59.0885 76.3847 59.0114C76.6733 58.762 76.5634 58.4653 76.9626 58.2103C77.3631 57.9552 77.9502 57.2972 78.5004 56.2364C78.5182 56.2031 78.5162 55.8601 78.7346 55.5555C79.0815 55.07 79.6188 54.409 79.9993 53.9158C80.1815 53.6792 79.9691 53.7562 79.9991 53.7138C81.1889 52.0869 82.2134 51.0672 83.7473 49.5587C84.0275 49.2823 84.7218 48.365 85.3749 47.9426C86.0926 47.4846 85.8437 48.485 87.1856 47.1274C87.7284 46.5902 88.0164 45.3696 89.3726 44.8402C91.4865 43.1437 93.7152 41.9799 96.0517 40.6092C96.1565 40.5476 96.4057 40.1837 96.665 40.0583C97.05 39.8725 97.3041 39.8597 97.582 39.7351C98.7492 39.217 99.7901 38.6832 100.947 38.2541C101.386 38.0931 101.268 38.2446 101.792 38.0591C102.316 37.8766 102.626 37.6259 103.363 37.4546C103.921 37.3268 104.543 37.4214 105.275 37.2495C105.23 36.9832 105.727 36.8438 106.606 36.5529C106.775 36.4972 106.568 36.4514 106.647 36.4203C106.968 36.2919 107.296 36.2952 107.601 36.1732C107.676 36.1437 107.659 36.0529 107.719 36.0238C108.228 35.7705 109.163 35.8002 109.323 35.8092C109.936 35.8361 110.186 35.6738 110.647 35.6555C111.106 35.6395 110.443 35.8092 110.973 35.7615C112.075 35.6623 113.471 35.492 114.591 35.418C115.034 35.388 114.723 35.2866 114.786 35.2794C115.704 35.1844 116.646 35.2851 117.152 35.0317C117.801 35.6576 117.706 34.9525 119.035 35.099C119.139 35.1116 119.264 35.4131 118.865 35.4495C118.466 35.4861 117.863 35.3894 117.315 35.4668C117.185 35.4833 116.446 35.7832 116.346 35.8053C115.559 35.9685 115.424 35.5334 115.38 35.5101C114.886 35.2696 113.992 35.6426 113.757 35.6869C112.671 35.8819 111.74 35.9376 110.841 36.1442C110.255 36.2806 110.248 36.5802 109.786 36.652C108.252 36.9047 107.625 36.626 106.282 37.3288C105.996 37.4831 106.38 37.7046 105.231 37.7623C105.16 37.7647 104.288 37.7779 103.87 38.0649C103.818 38.1007 103.848 38.1891 103.775 38.2208C103.282 38.4321 102.919 38.4749 102.38 38.7024C101.841 38.9305 101.207 39.2246 100.577 39.4436C100.198 39.5745 99.6563 39.6138 99.4622 39.6512C98.9128 39.7527 98.4628 40.1778 98.095 40.1857C97.7224 40.196 98.2327 39.7032 97.3772 40.0026C97.452 40.2357 97.4915 40.4931 97.5503 40.7356C95.7965 41.5765 94.0831 42.4504 92.4451 43.5215C92.2425 43.6547 92.5212 43.629 92.3067 43.7749C91.4043 44.3915 90.5675 44.8646 89.682 45.5773C88.9973 46.1299 88.3321 46.8382 87.6584 47.4571C87.0502 47.605 86.0883 48.5827 85.3615 49.2531C85.1058 49.4876 85.071 49.4187 84.8776 49.5747C84.1524 50.1695 84.6373 50.0349 84.4849 50.2428C83.8433 51.14 83.3737 50.8232 82.5144 51.8023C82.4668 51.8542 82.1413 52.6807 82.0833 52.7808C81.7049 53.4174 81.9259 52.8063 81.6157 53.1449C81.0524 53.7666 80.6336 54.1801 80.1133 55.0202C79.9611 55.2661 79.7069 55.927 79.2743 56.3013C79.2172 56.3506 79.1599 56.2617 79.1216 56.3069C78.4381 57.1346 78.6823 57.3347 78.4412 57.8981C78.2009 58.4615 77.5369 59.1531 77.3877 59.2895C76.9969 59.6422 77.5246 58.9235 77.5267 58.8933C77.534 58.524 77.2025 59.1305 76.9278 59.579C76.6276 59.4936 76.28 60.1486 76.6455 60.0459C76.6855 60.0336 76.8628 59.6634 76.9278 59.579C76.9532 60.1271 76.5963 60.8393 75.9417 61.5068C75.6381 61.8204 75.6736 61.3941 75.1625 62.5648C74.9352 63.0985 75.2185 62.9848 75.0558 63.4704C74.6883 64.5717 73.9351 65.8932 73.5579 67.0311C73.4208 67.4439 73.671 67.0839 73.5818 67.3671C73.3468 68.1215 73.0516 68.7465 72.8633 69.5177C72.8466 69.5874 73.0107 69.4545 72.9416 69.6899C72.4275 71.4714 71.9756 73.0246 71.6281 74.9406C71.5221 75.527 71.4064 76.4195 71.3175 77.2448C71.2658 77.7174 71.2138 78.1654 71.1635 78.5191C70.9232 80.2166 70.483 82.2863 70.338 83.7442C70.243 84.695 70.3876 84.5023 70.4158 84.9186C70.4535 85.4676 70.2519 86.2724 70.0991 86.7846C70.0287 87.0187 69.9704 87.1914 69.9498 87.2481C69.948 87.2519 69.9811 86.8668 69.9656 86.7675C69.9612 86.7401 69.953 86.7343 69.9391 86.7641C69.9302 86.7828 69.9191 86.8158 69.9052 86.8667C69.7475 87.1017 69.9504 87.2392 69.9498 87.2481C69.9008 87.3666 69.7133 88.9695 69.7196 89.2905C69.719 89.4659 69.8386 89.3765 69.8364 89.4676C69.7832 91.6254 69.803 93.7724 69.894 95.9521C69.8942 95.9904 69.7646 95.9412 69.7669 96.0315C69.7997 97.3005 70.0417 98.0912 70.2686 99.1098C70.4989 100.13 70.6098 100.936 70.5123 101.586C70.6829 102.355 70.8329 103.474 70.9358 104.123C71.0372 104.77 71.3012 104.794 71.3197 104.848C71.9343 106.523 72.1085 107.541 72.7273 109.285C73.0181 110.114 73.7211 111.71 74.1525 112.557C74.4893 113.229 74.6368 113.659 74.9848 114.26C75.032 114.341 75.0859 114.207 75.1027 114.23C75.5733 114.853 75.1671 114.648 75.1987 114.812C75.3182 115.404 75.4061 115.768 75.9754 116.588C76.1069 116.779 76.7772 117.153 77.0148 117.491C77.3242 117.932 77.0989 117.834 77.4324 118.292C77.4611 118.331 77.5262 118.277 77.7141 118.57C78.5873 119.928 79.5939 121.38 80.6715 122.67C80.8184 122.847 80.7346 122.535 80.9487 122.787C81.9537 123.97 83.1048 125.22 84.1444 126.322C84.4003 126.593 84.1672 126.498 84.2057 126.575C84.4451 127.045 85.1331 127.346 85.2217 127.42C87.3509 129.191 88.8962 130.676 91.322 132.145C91.4541 132.227 92.5894 132.633 92.9287 133.093C92.9513 133.124 93.286 133.593 93.7674 133.682C93.7973 133.687 93.5727 133.424 94.0612 133.713C94.5506 134.001 95.3939 134.361 96.0336 134.823C96.2353 134.969 96.6643 135.439 97.416 135.578C97.4663 135.589 98.6687 135.665 98.9342 136.082C98.9768 136.149 98.7971 136.411 99.6763 136.591C99.8441 136.624 99.5844 136.451 100.012 136.571C100.666 136.753 101.493 137.138 102.324 137.265C102.47 137.288 103.117 137.278 103.548 137.568C103.616 137.614 103.445 137.67 103.694 137.755C104.873 138.156 106.165 138.408 107.387 138.73C107.823 138.843 107.565 138.96 108.019 139.093C108.478 139.227 109.4 139.427 109.901 139.423C110.4 139.42 109.905 139.086 110.636 139.166C110.73 139.176 110.824 139.186 110.918 139.196C110.918 139.196 110.918 139.196 110.918 139.196C113.989 139.515 117.053 139.755 120.142 139.565C120.611 139.534 120.215 139.472 120.909 139.414C123.471 139.238 127.792 138.307 129.971 137.829C131.73 137.467 129.608 138.237 130.939 137.899C131.582 137.731 132.162 137.21 132.307 137.148C133.739 136.541 134.79 136.261 136.052 135.655C136.312 135.528 136.003 135.532 136.224 135.426C136.977 135.06 137.79 134.723 138.497 134.343C138.813 134.172 138.71 134.12 139.004 133.97C139.706 133.61 140.332 133.299 141.039 132.977C141.103 132.947 140.756 133.293 141.261 132.994C142.076 132.508 143.118 131.936 143.96 131.231C144.209 131.02 144.095 130.841 144.743 130.55C144.878 130.487 144.886 130.809 145.399 130.14C145.49 130.029 146.37 128.956 147.001 128.673C147.168 128.6 147.649 128.469 147.922 128.185C147.958 128.146 147.723 128.199 147.958 127.978C148.786 127.197 149.659 126.385 150.449 125.524C150.659 125.294 150.25 125.543 150.565 125.202C151.429 124.267 152.502 123.095 153.312 122.146C153.611 121.796 153.49 122.106 153.519 122.087C153.994 121.775 154.001 121.375 154.098 121.225C154.706 120.292 155.285 119.669 155.833 118.801C155.983 118.561 155.778 118.666 155.801 118.613C156.039 118.073 155.97 118.547 156.191 118.25C156.807 117.419 157.397 116.419 157.889 115.498C158.07 115.159 157.747 115.474 157.91 115.171C158.867 113.372 159.764 111.457 160.544 109.624C160.691 109.279 160.701 109.535 160.75 109.47C161.094 109.022 161.151 108.198 161.189 108.019C161.363 107.209 161.544 106.931 161.739 106.226C162.365 103.952 162.95 101.288 163.292 98.7564C163.473 97.4326 163.652 96.1562 163.813 95C164.103 92.9199 164.374 91.0589 164.635 89.2326C164.926 87.1849 165.083 85.1814 165.06 82.9379C165.056 82.672 164.924 82.9409 164.919 82.7123C164.856 79.7582 164.602 76.8456 163.977 73.9495C163.925 73.7123 163.871 74.08 163.783 73.7012C163.603 72.9268 163.375 71.9397 163.204 71.1521C163.12 70.7675 163.364 71.2482 163.276 70.8611C163.071 69.957 162.787 69.0048 162.46 68.1114C162.319 67.7316 162.396 68.3506 162.222 67.855C161.026 64.4853 159.477 61.3287 157.683 58.1814C157.559 57.9662 157.665 57.6379 157.329 57.223C157.246 57.2303 157.175 57.28 157.1 57.309C154.176 52.996 150.669 49.1155 146.512 45.9252C146.337 45.7913 146.555 46.1328 146.216 45.8752C144.245 44.3901 142.204 43.1318 140.039 41.8257C139.824 41.6974 140.053 41.5348 139.375 41.2309C139.257 41.1751 138.238 40.7131 137.952 40.643C137.913 40.6339 138.049 40.8235 137.721 40.6756C135.824 39.8196 133.783 39.0161 131.813 38.3459C131.493 38.2373 131.873 38.2237 131.645 38.1456C130.028 37.592 128.203 37.2545 126.613 36.8539C125.552 36.5904 125.986 36.4531 125.44 36.154C125.363 36.111 124.686 36.0074 124.667 35.8835C124.617 35.5686 124.997 35.2846 124.905 34.9436C124.89 34.8861 124.324 34.8431 124.331 34.784Lnan nanL124.231 35.5605Lnan nanL124.331 34.784C124.333 34.7664 124.386 34.7469 124.517 34.7254C124.557 34.7182 125.243 34.7568 125.418 34.7265C125.54 34.7048 125.349 34.551 125.594 34.5369C125.839 34.5233 126.083 34.6663 126.484 34.6744C126.885 34.6837 126.736 34.511 127.526 34.6436ZM71.4796 107.024C71.5512 107.638 71.9889 107.588 71.6923 106.999C71.6775 106.97 71.4757 106.992 71.4796 107.024ZM93.9479 42.1984C93.165 42.4397 92.8528 42.969 93.4048 42.8003C93.9552 42.6357 94.1853 42.1264 93.9479 42.1984ZM101.318 38.5186C100.393 38.7112 100.485 39.3337 101.362 38.8632C101.413 38.8364 101.372 38.5076 101.318 38.5186ZM128.128 36.5889C128.122 36.581 127.641 36.4752 127.628 36.479C127.345 36.5603 128.304 36.7705 128.128 36.5889ZM109.169 36.1582C108.866 36.1293 108.063 36.3933 108.438 36.4208C108.739 36.4412 109.545 36.192 109.169 36.1582ZM89.6789 132.388C89.683 132.399 89.9731 132.604 89.9878 132.569C90.033 132.459 89.6081 132.208 89.6789 132.388ZM123.08 35.5827C121.042 35.3579 119.788 34.8038 122.057 35.0134C122.465 35.056 121.163 35.1056 121.681 35.1911C122.619 35.3471 123.282 35.0949 124.236 35.3862C124.406 35.4369 123.194 35.5933 123.076 35.583C123.077 35.5829 123.079 35.5828 123.08 35.5827ZM71.0921 107.516C71.0899 107.529 71.2379 107.998 71.2477 108.007C71.4606 108.216 71.1625 107.274 71.0921 107.516ZM108.678 140.386C108.701 140.406 109.832 140.597 109.872 140.589C110.492 140.46 108.217 140.077 108.678 140.386ZM70.4692 74.6806C70.4285 74.1225 70.5403 73.4785 70.8 73.0946C70.679 73.6168 70.5731 74.1489 70.4692 74.6806Z" fill="#683626"/>
<path d="M117.376 74.1713C117.007 74.0527 116.656 73.9577 116.323 73.8865C116.002 73.831 115.583 73.77 115.064 73.7034L107.602 72.7447L107.607 72.7027C107.942 72.5321 108.256 72.1949 108.549 71.6912C108.842 71.1874 109.039 70.5362 109.142 69.7373L110.219 61.3497C110.318 60.5789 110.289 59.9199 110.131 59.3725C109.976 58.8112 109.756 58.4126 109.473 58.1768L109.478 58.1348L114.629 58.7964L114.623 58.8384C114.288 59.009 113.974 59.3462 113.681 59.8499C113.389 60.3537 113.191 61.005 113.088 61.8038L111.887 71.1584L113.968 71.4257C114.893 71.5446 115.732 71.4957 116.487 71.2792C117.243 71.0487 117.886 70.6469 118.415 70.0739L118.455 70.1003L117.376 74.1713ZM130.331 71.5833L129.205 75.6909C128.822 75.5705 128.45 75.4728 128.089 75.398C127.74 75.3389 127.265 75.2707 126.662 75.1933L119.241 74.24L119.247 74.198C119.582 74.0274 119.896 73.6902 120.189 73.1865C120.481 72.6827 120.679 72.0314 120.782 71.2326L121.848 62.9291C121.953 62.1163 121.926 61.4362 121.769 60.8888C121.613 60.3275 121.394 59.9219 121.113 59.6721L121.118 59.63L128.665 60.5995C129.66 60.7273 130.41 60.7667 130.915 60.7176L130.789 64.5264L130.744 64.542C130.559 63.9911 130.202 63.5534 129.673 63.2292C129.147 62.8909 128.47 62.6686 127.644 62.5624L124.869 62.206L124.393 65.9057L125.991 66.111C126.874 66.2244 127.527 66.3011 127.949 66.3411C128.373 66.3671 128.82 66.3818 129.289 66.3851L128.226 69.8384L128.184 69.833C128.075 69.3489 127.845 68.9775 127.494 68.7187C127.142 68.4598 126.665 68.2917 126.063 68.2143L124.129 67.9659L123.521 72.6957L125.813 72.9901C126.738 73.1089 127.579 73.046 128.337 72.8015C129.109 72.5588 129.76 72.1439 130.292 71.5568L130.331 71.5833Z" fill="#683626"/>
<path d="M93.1372 83.219L93.1318 83.2611C92.8738 83.3846 92.6572 83.6844 92.482 84.1605C92.3069 84.6366 92.159 85.3442 92.0384 86.2831L91.5928 89.7517C90.8345 90.1101 89.9538 90.3674 88.9508 90.5235C87.9478 90.6795 87.0259 90.7035 86.1851 90.5955C84.7416 90.4101 83.4998 89.93 82.4596 89.1554C81.4195 88.3807 80.6561 87.3923 80.1695 86.1901C79.6969 84.9897 79.5533 83.6678 79.7387 82.2243C79.944 80.6267 80.4445 79.2807 81.2404 78.1863C82.0503 77.0937 83.0835 76.3147 84.3399 75.8493C85.5981 75.3699 87.005 75.2301 88.5606 75.4299C90.0181 75.6172 91.3252 75.9774 92.4818 76.5106L92.357 79.9776L92.3122 79.9932C91.3879 78.6494 90.0219 77.8613 88.214 77.6291C86.7565 77.4418 85.5522 77.7786 84.6012 78.6394C83.6659 79.4879 83.0912 80.7461 82.8769 82.4138C82.6627 84.0815 82.8929 85.4502 83.5675 86.5198C84.2421 87.5894 85.2801 88.2142 86.6815 88.3942C87.5644 88.5077 88.355 88.4525 89.0533 88.2288L89.4935 84.8023C88.0744 84.6485 86.9836 84.8787 86.2208 85.4931L86.1815 85.4666L86.931 82.2935C87.3827 82.437 88.2322 82.5889 89.4795 82.7491L93.1372 83.219ZM104.651 89.7624C105.296 91.1702 106.102 92.107 107.068 92.573L107.062 92.615L102.653 92.8392C102.489 92.0062 102.232 91.1825 101.881 90.3681L99.3378 84.3788L100.347 84.5084C101.272 84.6273 101.999 84.5141 102.527 84.1689C103.058 83.8097 103.382 83.1746 103.499 82.2636C103.598 81.4928 103.431 80.8517 102.998 80.3402C102.565 79.8288 101.899 79.5224 101 79.4212L99.5262 79.2532L98.3109 88.7129C98.2137 89.4697 98.236 90.1279 98.3778 90.6874C98.5214 91.233 98.7199 91.6288 98.9732 91.8751L98.9678 91.9171L93.9016 91.2663L93.907 91.2242C94.2405 91.0676 94.5536 90.7375 94.8462 90.2337C95.1406 89.716 95.3392 89.0577 95.4418 88.2589L96.5193 79.8713C96.6183 79.1005 96.589 78.4414 96.4314 77.8941C96.2756 77.3327 96.0561 76.9341 95.773 76.6983L95.7784 76.6563L101.749 77.4232C103.416 77.6375 104.668 78.2043 105.505 79.1237C106.343 80.0292 106.674 81.1686 106.497 82.542C106.357 83.6351 105.989 84.4996 105.395 85.1355C104.816 85.7592 104.052 86.1597 103.104 86.337L104.651 89.7624ZM120.516 91.1809C120.686 91.9719 120.926 92.7079 121.237 93.3889C121.55 94.056 121.851 94.5433 122.139 94.851L122.134 94.8931L117.383 94.2827L117.388 94.2407C117.634 94.1013 117.788 93.7934 117.849 93.3169C117.906 92.8685 117.864 92.3145 117.72 91.655L117.596 91.1262L112.172 90.4295L111.918 90.9097C111.62 91.4555 111.44 91.9736 111.377 92.4641C111.314 92.9546 111.37 93.2966 111.544 93.49L111.539 93.532L107.124 92.9649L107.13 92.9229C107.488 92.684 107.896 92.2805 108.354 91.7125C108.825 91.1463 109.243 90.5019 109.606 89.7793L113.725 81.5046C113.9 81.1424 114.007 80.8072 114.046 80.4988C114.088 80.1765 114.069 79.882 113.989 79.6154C113.909 79.3487 113.8 79.1424 113.663 78.9965L113.668 78.9544L119.239 79.6701L119.233 79.7121C119.061 79.8324 118.903 80.0115 118.758 80.2494C118.615 80.4732 118.523 80.7463 118.482 81.0687C118.442 81.377 118.461 81.7284 118.539 82.123L120.516 91.1809ZM115.936 82.0879C115.761 82.7918 115.54 83.4544 115.275 84.0756C115.012 84.6829 114.652 85.4344 114.195 86.3301L113.131 88.4585L117.167 88.977L116.675 86.6488C116.455 85.5947 116.292 84.7547 116.187 84.1287C116.082 83.5027 116.027 82.826 116.021 82.0987L115.936 82.0879ZM122.996 94.9611C123.332 94.7905 123.646 94.4534 123.938 93.9496C124.231 93.4459 124.429 92.7946 124.531 91.9958L125.611 83.5871C125.691 82.9705 125.668 82.3693 125.544 81.7835C125.422 81.1837 125.194 80.7343 124.862 80.4352L124.868 80.3932L129.64 81.0062C129.637 81.2481 129.673 81.5233 129.747 81.832C129.823 82.1267 129.988 82.561 130.242 83.135L132.616 88.6111C133.077 89.6817 133.543 91.152 134.015 93.0218L134.099 93.0326C134.039 91.7285 134.112 90.2706 134.319 88.659L134.805 84.8751C134.91 84.0622 134.891 83.376 134.749 82.8165C134.621 82.2587 134.416 81.862 134.133 81.6262L134.138 81.5841L138.994 82.2079L138.989 82.25C138.655 82.4066 138.341 82.7437 138.047 83.2615C137.754 83.7652 137.557 84.4165 137.454 85.2153L136.387 93.5189C136.285 94.3177 136.31 95.0048 136.464 95.5801C136.62 96.1415 136.84 96.5401 137.123 96.7759L137.117 96.8179L132.682 96.2481C132.507 95.6131 132.242 94.9024 131.887 94.116L129.542 88.9213C129.154 88.0595 128.844 87.2575 128.611 86.5154C128.381 85.7593 128.168 84.87 127.971 83.8476L127.887 83.8368C127.924 84.7675 127.917 85.5999 127.865 86.3341C127.828 87.07 127.752 87.8795 127.639 88.7624L127.18 92.336C127.076 93.1489 127.087 93.8342 127.215 94.3919C127.357 94.9515 127.569 95.3491 127.852 95.585L127.847 95.627L122.991 95.0032L122.996 94.9611ZM139.604 97.0946C139.94 96.924 140.254 96.5868 140.546 96.0831C140.839 95.5794 141.036 94.9281 141.139 94.1293L142.206 85.8257C142.299 85.097 142.264 84.43 142.1 83.8248C141.949 83.2214 141.739 82.8027 141.47 82.5687L141.476 82.5267L147.572 83.3098C149.043 83.4989 150.288 83.9579 151.305 84.6869C152.339 85.4037 153.087 86.3474 153.549 87.5179C154.011 88.6885 154.145 90.0305 153.95 91.5441C153.65 93.8845 152.78 95.6104 151.341 96.7219C149.903 97.8194 147.909 98.2043 145.359 97.8766L139.599 97.1367L139.604 97.0946ZM145.836 95.8225C147.238 96.0025 148.367 95.6918 149.225 94.8903C150.083 94.0888 150.621 92.8401 150.839 91.1444C151.068 89.3646 150.872 88.0074 150.251 87.073C149.632 86.1245 148.573 85.5539 147.073 85.3613L145.223 85.1236L143.881 95.5713L145.836 95.8225Z" fill="#683626"/>
<path d="M100.709 97.5713C102.391 97.7874 103.641 98.3682 104.46 99.3139C105.279 100.26 105.591 101.489 105.396 103.003C105.18 104.684 104.563 105.887 103.544 106.611C102.525 107.335 101.161 107.587 99.4509 107.367L97.7272 107.146L97.503 108.891C97.404 109.662 97.4324 110.328 97.5882 110.889C97.7458 111.436 97.9662 111.828 98.2493 112.064L98.2439 112.106L93.0936 111.444L93.099 111.402C93.4343 111.231 93.7483 110.894 94.041 110.391C94.3336 109.887 94.5312 109.235 94.6339 108.437L95.7114 100.049C95.8104 99.2783 95.7811 98.6192 95.6235 98.0719C95.4676 97.5105 95.2482 97.1119 94.9651 96.8761L94.9705 96.8341L100.709 97.5713ZM99.2348 105.224C101.097 105.478 102.149 104.658 102.393 102.766C102.517 101.799 102.376 101.062 101.972 100.554C101.582 100.034 100.911 99.7128 99.9585 99.5904L98.7182 99.431L97.9972 105.044L99.2348 105.224ZM117.019 111.013C117.188 111.804 117.429 112.54 117.74 113.221C118.053 113.888 118.354 114.376 118.642 114.683L118.636 114.725L113.886 114.115L113.891 114.073C114.137 113.934 114.29 113.626 114.352 113.149C114.409 112.701 114.366 112.147 114.223 111.487L114.099 110.959L108.675 110.262L108.421 110.742C108.123 111.288 107.943 111.806 107.88 112.296C107.817 112.787 107.872 113.129 108.047 113.322L108.042 113.364L103.627 112.797L103.632 112.755C103.991 112.516 104.399 112.113 104.856 111.545C105.328 110.979 105.746 110.334 106.109 109.612L110.228 101.337C110.402 100.975 110.51 100.639 110.549 100.331C110.591 100.009 110.572 99.7144 110.492 99.4477C110.412 99.181 110.303 98.9747 110.165 98.8288L110.171 98.7868L115.741 99.5024L115.736 99.5444C115.564 99.6648 115.406 99.8439 115.261 100.082C115.118 100.306 115.026 100.579 114.985 100.901C114.945 101.209 114.964 101.561 115.042 101.955L117.019 111.013ZM112.439 101.92C112.263 102.624 112.043 103.287 111.778 103.908C111.515 104.515 111.155 105.267 110.698 106.162L109.634 108.291L113.67 108.809L113.178 106.481C112.957 105.427 112.795 104.587 112.69 103.961C112.585 103.335 112.53 102.658 112.523 101.931L112.439 101.92ZM119.499 114.793C119.834 114.623 120.148 114.286 120.441 113.782C120.734 113.278 120.931 112.627 121.034 111.828L122.114 103.419C122.193 102.803 122.171 102.202 122.047 101.616C121.924 101.016 121.697 100.567 121.365 100.268L121.371 100.226L126.142 100.839C126.14 101.08 126.176 101.356 126.25 101.664C126.326 101.959 126.491 102.393 126.745 102.967L129.119 108.443C129.579 109.514 130.046 110.984 130.518 112.854L130.602 112.865C130.542 111.561 130.615 110.103 130.822 108.491L131.308 104.707C131.413 103.895 131.394 103.208 131.252 102.649C131.124 102.091 130.919 101.694 130.636 101.458L130.641 101.416L135.497 102.04L135.492 102.082C135.158 102.239 134.844 102.576 134.55 103.094C134.257 103.598 134.059 104.249 133.957 105.048L132.89 113.351C132.788 114.15 132.813 114.837 132.967 115.412C133.123 115.974 133.343 116.372 133.626 116.608L133.62 116.65L129.185 116.08C129.01 115.445 128.745 114.735 128.39 113.948L126.045 108.754C125.657 107.892 125.347 107.09 125.114 106.348C124.884 105.592 124.67 104.702 124.474 103.68L124.39 103.669C124.427 104.6 124.42 105.432 124.368 106.166C124.331 106.902 124.255 107.712 124.142 108.595L123.683 112.168C123.578 112.981 123.59 113.666 123.718 114.224C123.86 114.784 124.072 115.181 124.355 115.417L124.35 115.459L119.494 114.836L119.499 114.793Z" fill="#683626"/>
<path d="M179.799 90.7607C179.854 90.7367 179.932 90.7313 180.034 90.7443L181.499 90.9326C181.55 90.9391 181.588 90.9647 181.614 91.0093C181.65 91.045 181.666 91.0884 181.659 91.1392L180.334 101.457C180.327 101.507 180.301 101.551 180.255 101.586C180.22 101.613 180.178 101.623 180.127 101.616L178.723 101.436C178.672 101.429 178.628 101.408 178.591 101.372C178.566 101.328 178.557 101.28 178.563 101.229L179.675 92.5754C179.678 92.555 179.67 92.5334 179.652 92.5104C179.634 92.4874 179.615 92.4797 179.593 92.4873L178.155 92.6904L178.092 92.6979C177.99 92.6848 177.947 92.6223 177.961 92.5104L178.047 91.4819C178.06 91.3802 178.11 91.3142 178.196 91.2839L179.799 90.7607ZM184.264 100.503C184.241 100.521 184.233 100.541 184.241 100.562C184.249 100.584 184.268 100.597 184.298 100.601L188.129 101.093C188.18 101.099 188.218 101.125 188.243 101.169C188.28 101.205 188.295 101.249 188.289 101.299L188.14 102.459C188.133 102.51 188.107 102.553 188.061 102.589C188.026 102.615 187.984 102.625 187.933 102.619L181.996 101.856C181.945 101.85 181.901 101.829 181.864 101.793C181.839 101.748 181.83 101.7 181.836 101.65L181.987 100.474C181.996 100.403 182.032 100.33 182.093 100.255C183.375 99.0546 184.563 97.8938 185.659 96.7727C186.556 95.8227 187.043 95.0578 187.117 94.4778C187.171 94.0606 187.096 93.7149 186.893 93.4406C186.692 93.1562 186.398 92.9892 186.011 92.9395C185.635 92.8911 185.314 92.974 185.049 93.1881C184.783 93.4023 184.624 93.7128 184.572 94.1198L184.507 94.6235C184.501 94.6744 184.475 94.7175 184.429 94.753C184.394 94.7796 184.352 94.7896 184.301 94.7831L182.881 94.6008C182.831 94.5942 182.787 94.5731 182.75 94.5373C182.725 94.4927 182.715 94.445 182.722 94.3941L182.806 93.7378C182.951 92.9291 183.341 92.312 183.975 91.8866C184.609 91.4612 185.363 91.3048 186.238 91.4172C186.849 91.4956 187.366 91.6914 187.792 92.0046C188.218 92.3076 188.525 92.6936 188.713 93.1625C188.911 93.6327 188.975 94.1425 188.905 94.6919C188.845 95.16 188.681 95.6251 188.415 96.0874C188.159 96.5509 187.792 97.0364 187.313 97.5437C186.868 98.0244 186.141 98.7377 185.13 99.6835C184.93 99.8647 184.642 100.138 184.264 100.503Z" fill="#683626"/>
<defs>
<filter id="filter0_n_155_12" x="11.1898" y="17.7087" width="208.836" height="140.43" filterUnits="userSpaceOnUse" color-interpolation-filters="sRGB">
<feFlood flood-opacity="0" result="BackgroundImageFix"/>
<feBlend mode="normal" in="SourceGraphic" in2="BackgroundImageFix" result="shape"/>
<feTurbulence type="fractalNoise" baseFrequency="3.3333332538604736 3.3333332538604736" stitchTiles="stitch" numOctaves="3" result="noise" seed="4846" />
<feColorMatrix in="noise" type="luminanceToAlpha" result="alphaNoise" />
<feComponentTransfer in="alphaNoise" result="coloredNoise1">
<feFuncA type="discrete" tableValues="1 1 1 1 1 1 1 1 1 1 1 1 1 1 1 1 1 1 1 1 1 1 1 1 1 1 1 1 1 1 1 1 1 1 1 1 1 1 1 1 1 1 1 1 1 1 1 1 1 1 1 0 0 0 0 0 0 0 0 0 0 0 0 0 0 0 0 0 0 0 0 0 0 0 0 0 0 0 0 0 0 0 0 0 0 0 0 0 0 0 0 0 0 0 0 0 0 0 0 0 "/>
</feComponentTransfer>
<feComposite operator="in" in2="shape" in="coloredNoise1" result="noise1Clipped" />
<feFlood flood-color="rgba(0, 0, 0, 0.15)" result="color1Flood" />
<feComposite operator="in" in2="noise1Clipped" in="color1Flood" result="color1" />
<feMerge result="effect1_noise_155_12">
<feMergeNode in="shape" />
<feMergeNode in="color1" />
</feMerge>
</filter>
</defs>
</svg>
