<svg width="1456" height="182" viewBox="0 0 1456 182" fill="none" xmlns="http://www.w3.org/2000/svg">
<path d="M69.2279 178.05C83.4221 177.054 94.3791 165.35 94.3791 151.156V150.16H97.6163V181.038H0V178.05H5.47847V3.23728H0V0H23.408V178.05H69.2279Z" fill="#321D16"/>
<path d="M115.27 178.05H120.748V3.23728H115.27V0H212.886V31.1277H209.649V29.8826C209.649 15.6883 198.692 3.98435 184.498 3.23728H138.678V88.9006H167.315C176.031 88.4026 183.003 81.1809 183.003 72.4652V71.2201H186.241V109.818H183.003V108.573C183.003 99.8576 176.031 92.6359 167.315 92.1379H138.678V178.05H184.498C198.692 177.054 209.649 165.35 209.649 151.156V150.16H212.886V181.038H115.27V178.05Z" fill="#321D16"/>
<path d="M292.795 90.6438C292.795 78.4417 295.036 66.7377 299.767 55.5318C304.25 44.8238 310.724 35.112 318.942 26.8943C327.159 18.6766 336.622 11.953 347.33 7.47065C358.536 2.73924 370.24 0.249033 382.442 0H384.434C403.36 0.249033 421.29 6.22554 436.48 17.1825C443.95 22.6609 450.425 29.1355 455.903 36.3571C461.382 43.5787 465.615 51.7964 468.853 60.5122L469.6 62.5044H452.168L451.67 61.5083C446.69 44.5748 437.974 30.3806 425.772 19.9217C413.819 9.21379 399.376 3.4863 384.185 3.23728H382.442C363.268 3.4863 345.338 12.7001 331.642 29.1355C318.195 45.5709 310.724 67.4848 310.724 90.6438C310.724 113.803 318.195 135.717 331.642 152.152C345.338 168.587 363.268 177.801 382.442 178.05H384.434C403.36 177.801 421.289 168.587 434.737 152.152C448.184 135.966 455.405 114.799 455.903 92.1379H397.882V88.9006H473.833V180.789H470.596V127.001C470.596 125.756 469.849 125.009 468.604 125.009C467.857 125.009 467.109 125.258 466.611 126.005C466.611 126.254 466.611 126.254 466.611 126.254C464.868 130.487 462.876 134.472 460.386 138.207V138.456C460.137 138.954 459.888 139.203 459.639 139.452C451.67 151.903 440.713 162.362 427.764 169.584C414.566 177.054 399.625 181.038 384.185 181.288H382.442C370.24 181.038 358.536 178.548 347.33 173.817C336.622 169.334 327.159 162.611 318.942 154.393C310.724 146.176 304.25 136.464 299.767 125.756C295.036 114.55 292.795 102.846 292.795 90.6438Z" fill="#321D16"/>
<path d="M561.695 95.6242L588.838 178.05H594.815V181.038H565.679V178.05H570.659L542.52 92.8849C527.579 93.632 515.377 106.083 515.377 121.522L515.128 178.05H520.606V181.038H491.72V178.05H497.198V3.23728H491.72V0H543.765C554.971 0 565.679 4.23337 573.897 11.704C583.858 20.6688 589.336 33.1198 589.336 46.318C589.336 59.5161 583.858 72.2162 573.897 80.9319C567.671 86.6594 559.703 90.6438 551.236 92.1379L561.695 95.6242ZM515.128 108.075C520.108 97.1183 531.314 89.6477 543.765 89.6477C550.24 89.6477 556.714 87.1575 561.944 82.4261C567.671 77.1966 571.158 69.726 571.407 61.7573V31.1277C571.158 23.159 567.671 15.6883 561.944 10.2099C556.963 5.72749 550.489 3.23728 543.765 3.23728H515.128V108.075Z" fill="#321D16"/>
<path d="M678.816 121.771H632.997L620.545 178.05H632.997V181.038H604.11V178.05H605.106C612.079 178.05 618.055 173.319 619.798 166.844L650.179 29.6335L641.214 0H659.393L714.177 178.05H720.154V181.038H696.995L678.816 121.771ZM633.744 118.534H677.82L652.171 35.61L633.744 118.534Z" fill="#321D16"/>
<path d="M729.311 3.23728V0H751.972L847.347 173.319V29.8826C847.347 15.6883 836.391 3.98435 822.196 3.23728L821.2 2.98826V0H856.063V3.23728H850.585V181.038H833.402L738.027 7.71967V151.156C738.027 165.35 748.984 177.054 763.178 178.05H764.174V181.038H729.311V178.05H734.79V3.23728H729.311Z" fill="#321D16"/>
<path d="M874.006 0H897.663C909.865 0 921.569 2.49023 932.775 7.22163C943.483 11.953 952.946 18.4276 961.164 26.8943C969.381 35.112 975.856 44.8238 980.338 55.5318C985.07 66.4887 987.311 78.4417 987.311 90.6438C987.311 102.597 985.07 114.55 980.338 125.507C975.856 136.215 969.381 145.926 961.164 154.393C952.946 162.611 943.483 169.085 932.775 173.817C921.569 178.548 909.865 181.038 897.663 181.038H897.414L896.169 181.288H874.006V178.05H879.485V3.23728H874.006V0ZM897.414 3.23728V178.05H897.663C916.838 177.552 934.768 168.587 948.215 152.152C961.911 135.717 969.381 113.803 969.381 90.6438C969.381 67.2358 961.911 45.5709 948.215 28.8865C934.768 12.7001 916.838 3.4863 897.663 3.23728H897.414Z" fill="#321D16"/>
<path d="M1134.57 0H1134.82C1143.53 0 1151.75 1.99217 1159.72 5.72749C1167.44 9.21379 1173.91 14.1942 1179.64 20.6688C1189.35 31.8747 1194.83 46.0689 1194.83 61.0102C1194.83 75.7025 1189.35 90.1457 1179.64 101.352C1173.91 107.577 1167.44 112.558 1159.72 116.293C1151.75 119.779 1143.28 121.771 1134.57 121.771C1134.32 121.771 1134.07 122.02 1133.82 122.02C1121.62 122.02 1109.92 117.04 1101.2 108.324C1096.72 103.842 1093.23 98.6124 1090.99 92.8849V178.05H1096.47V181.288H1067.58V178.05H1073.06V3.23728H1067.58V0H1068.58C1075.3 0 1134.32 0 1134.57 0ZM1133.82 118.783C1134.07 118.783 1134.57 118.783 1134.57 118.783C1145.77 118.534 1156.23 114.052 1164.2 106.083C1172.17 98.1144 1176.65 87.6555 1176.9 76.4495V45.3219C1176.65 34.1159 1172.17 23.657 1164.2 15.6883C1156.23 7.71967 1145.77 3.23728 1134.57 3.23728C1134.32 3.23728 1134.07 3.23728 1133.82 3.23728H1090.99V76.2005C1091.24 87.6555 1095.72 98.3634 1103.69 106.332C1111.91 114.301 1122.62 118.783 1133.82 118.783Z" fill="#321D16"/>
<path d="M1278.75 121.771H1232.93L1220.48 178.05H1232.93V181.038H1204.05V178.05H1205.04C1212.02 178.05 1217.99 173.319 1219.74 166.844L1250.12 29.6335L1241.15 0H1259.33L1314.11 178.05H1320.09V181.038H1296.93L1278.75 121.771ZM1233.68 118.534H1277.76L1252.11 35.61L1233.68 118.534Z" fill="#321D16"/>
<path d="M1329.25 3.23728V0H1351.91L1447.28 173.319V29.8826C1447.28 15.6883 1436.33 3.98435 1422.13 3.23728L1421.14 2.98826V0H1456V3.23728H1450.52V181.038H1433.34L1337.96 7.71967V151.156C1337.96 165.35 1348.92 177.054 1363.12 178.05H1364.11V181.038H1329.25V178.05H1334.73V3.23728H1329.25Z" fill="#321D16"/>
</svg>
